<svg xmlns="http://www.w3.org/2000/svg" width="238" height="238" viewBox="0 0 238 238">
  <g id="Grupo_42428" data-name="Grupo 42428" transform="translate(-4599.463 -1215.877)">
    <path id="Trazado_44810" data-name="Trazado 44810" d="M4718.556,1345.952s-4.891,12.548,4.4,19.224l7.135-2.147s-7.256-7.558-2.8-17.686Z" fill="#f9b233"/>
    <rect id="Rectángulo_6878" data-name="Rectángulo 6878" width="238" height="238" transform="translate(4599.463 1215.877)" fill="none"/>
    <g id="Grupo_42428-2" data-name="Grupo 42428">
      <path id="Trazado_44811" data-name="Trazado 44811" d="M4610.938,1234.43l9.529,4.282s-4.218,5.927-8.32,3.376S4610.938,1234.43,4610.938,1234.43Z" fill="#ea7628"/>
      <path id="Trazado_44812" data-name="Trazado 44812" d="M4619.62,1230.206s-6.263,3.812-5.662,8.2,5,2.668,6.509.305c0,0-3.6,8.079-10.631,4.571s-1.355-13.386,5.489-17.039Z" fill="#f78116"/>
    </g>
    <path id="Trazado_44813" data-name="Trazado 44813" d="M4770.814,1426.227s-16.819,3.553-18.626-13.208l-6.267,7.05s1.148,15.516,18.461,15.564Z" fill="#008d36"/>
    <g id="Grupo_42444" data-name="Grupo 42444">
      <g id="Grupo_42433" data-name="Grupo 42433">
        <path id="Trazado_44814" data-name="Trazado 44814" d="M4602.72,1342.876l16.02-34.445s-7.164-13.948-.722-33.522c6.106-18.55,12.513-36.352,12.087-47.814s12.858-11.028,14.173,1.239-3.786,25.447-3.786,25.447l21.52,3.749-14.445,43.191,7.959,29.357-4.787,29.318S4621.522,1363.52,4602.72,1342.876Z" fill="#f4b08e"/>
        <path id="Trazado_44815" data-name="Trazado 44815" d="M4639.144,1231.294c-1.49,13.689-4.688,21.556-4.688,21.556l2.991,1.682,5.367-9.972c.023-.112.046-.228.07-.342,1.108-5.529,2.05-9.761,1.394-15.884-.721-6.722-5.036-9.891-8.719-9.495C4637.965,1221.4,4639.983,1223.594,4639.144,1231.294Z" fill="#e8a287"/>
        <path id="Trazado_44816" data-name="Trazado 44816" d="M4633.686,1255.475s8.06-29.178,28.3-19.789c0,0-16.084,7.035-18,23.042Z" fill="#f4b08e"/>
        <path id="Trazado_44817" data-name="Trazado 44817" d="M4661.984,1235.686s-20.428-1.667-20.109,21.554Z" fill="#e8a287"/>
        <path id="Trazado_44818" data-name="Trazado 44818" d="M4640.631,1258.429s5.216-21.758,22.328-22.589,24.237,17.6,24.237,17.6l-39.926,6.8Z" fill="#f4b08e"/>
        <path id="Trazado_44819" data-name="Trazado 44819" d="M4649.36,1259.008s8.132-25.752,31.353-16.087l-30.392,18.771Z" fill="#e8a287"/>
        <path id="Trazado_44820" data-name="Trazado 44820" d="M4699.531,1281.753c-.685,11.244-12,19.141-23.248,18.456a20.4,20.4,0,1,1,2.483-40.72C4690.01,1260.174,4700.217,1270.508,4699.531,1281.753Z" fill="#5224e2"/>
        <path id="Trazado_44821" data-name="Trazado 44821" d="M4674.992,1296.219c-8.442-.515-14.87-8.151-14.33-17.023s6.622-16.622,17.121-15.982c10.921.666,15.733,9.983,15.21,18.568a14.566,14.566,0,0,1-5.7,10.457A18.159,18.159,0,0,1,4674.992,1296.219Z" fill="#6d31fd"/>
        <path id="Trazado_44822" data-name="Trazado 44822" d="M4675.068,1294.976c-7.757-.473-13.661-7.518-13.162-15.7a16.751,16.751,0,0,1,4.473-10.763,15.148,15.148,0,0,1,22.289,1.746,18.027,18.027,0,0,1,3.082,11.451,13.341,13.341,0,0,1-5.237,9.561A16.9,16.9,0,0,1,4675.068,1294.976Zm2.613-30.08a13.691,13.691,0,0,0-10.988,3.92,16.317,16.317,0,0,0-4.348,10.483c-.485,7.944,5.235,14.78,12.749,15.238a16.458,16.458,0,0,0,11.144-3.613,12.9,12.9,0,0,0,5.073-9.245,17.584,17.584,0,0,0-3-11.168A13.609,13.609,0,0,0,4677.681,1264.9Z" fill="#5224e2"/>
        <path id="Trazado_44823" data-name="Trazado 44823" d="M4650.739,1359.4c.034-.56,12.188-36.928,12.188-36.928s23.454,4.456,37.019-13.692c13.269-17.752,4.178-23.931-2.032-23.56s-5,10.334-17.612,13.155c-13.437,3.005-24.1-9.918-21.567-22.231,2.119-10.305,10.38-17.316,22.231-14.765,13.971,3.008,13.184,16.394,14.58,21.166.806,2.755,6.063,4.157,9.6.96,4.465-4.04,6.56-30.722-16.489-38.6s-35.346,7.782-40.738,16.265l-30.152,42.515,32.243,53.885Z" fill="#f4b08e"/>
        <path id="Trazado_44824" data-name="Trazado 44824" d="M4631.535,1253.094a30.383,30.383,0,0,1,21.542,8.766l-8.97,8.733-17.615-6.276Z" fill="#f4b08e"/>
        <g id="Grupo_42430" data-name="Grupo 42430">
          <g id="Grupo_42429" data-name="Grupo 42429">
            <rect id="Rectángulo_6879" data-name="Rectángulo 6879" width="4.494" height="14.094" rx="1.285" transform="translate(4669.718 1271.811) rotate(3.489)" fill="#422c9b"/>
          </g>
          <path id="Trazado_44825" data-name="Trazado 44825" d="M4673.42,1284.938l.71-11.638a1.222,1.222,0,0,0-1.141-1.289l-2.056-.125a1.094,1.094,0,0,0-.2.005c1.04,2.43,2.114,7.135-.324,14.083l1.72.1A1.22,1.22,0,0,0,4673.42,1284.938Z" fill="#37288e" opacity="0.13" style="mix-blend-mode: multiply;isolation: isolate"/>
        </g>
        <path id="Trazado_44826" data-name="Trazado 44826" d="M4629.351,1256.617s13.08-.047,19.191,5.81Z" fill="#e8a287"/>
        <path id="Trazado_44827" data-name="Trazado 44827" d="M4652.185,1320.3l-8.871,39.421a51.994,51.994,0,0,0,7.425-.325l0-.023c.238-1.159,12.184-36.905,12.184-36.905h0S4661.015,1323.088,4652.185,1320.3Z" fill="#e8a287" opacity="0.8"/>
        <path id="Trazado_44828" data-name="Trazado 44828" d="M4621.258,1309.306s-7.335-14.369-1.073-34.767c5.935-19.331,12.149-37.995,11.6-49.88a11.743,11.743,0,0,1,.525-4.3c-1.412,1.356-2.325,3.6-2.208,6.739.426,11.462-5.981,29.264-12.087,47.814-6.442,19.574.722,33.522.722,33.522l-16.02,34.445a47.364,47.364,0,0,0,5.614,5.243q-1.428-1.341-2.795-2.852Z" fill="#f9c3ac"/>
        <g id="Grupo_42432" data-name="Grupo 42432">
          <g id="Grupo_42431" data-name="Grupo 42431">
            <rect id="Rectángulo_6880" data-name="Rectángulo 6880" width="4.494" height="14.094" rx="1.285" transform="translate(4680.284 1272.389) rotate(3.489)" fill="#422c9b"/>
          </g>
          <path id="Trazado_44829" data-name="Trazado 44829" d="M4683.986,1285.515l.709-11.638a1.22,1.22,0,0,0-1.14-1.289l-2.056-.125a1.32,1.32,0,0,0-.2.005c1.041,2.43,2.114,7.135-.323,14.083l1.72.1A1.221,1.221,0,0,0,4683.986,1285.515Z" fill="#37288e" opacity="0.13" style="mix-blend-mode: multiply;isolation: isolate"/>
        </g>
      </g>
      <g id="Grupo_42435" data-name="Grupo 42435">
        <circle id="Elipse_1519" data-name="Elipse 1519" cx="24.448" cy="24.448" r="24.448" transform="translate(4724.615 1218.362)" fill="#2553e5"/>
        <g id="Grupo_42434" data-name="Grupo 42434">
          <path id="Trazado_44830" data-name="Trazado 44830" d="M4761.463,1247.84l-8.033.057.016,2.164,2.7-.019.029,4.092,2.65-.019-.029-4.092,2.68-.019-.015-2.164Z" fill="#fff" fill-rule="evenodd"/>
          <path id="Trazado_44831" data-name="Trazado 44831" d="M4754.556,1254.146l-3.023-6.214-3.86.028-3.04,6.257s3.244-.006,3.278-.024l.923-2.326a3.887,3.887,0,0,1,2.446,2.3l3.276-.023Zm-5.621-2.56.775-1.97.616,1.96-1.391.01Z" fill="#fff" fill-rule="evenodd"/>
          <path id="Trazado_44832" data-name="Trazado 44832" d="M4743.936,1248.109l.014,1.94a.749.749,0,0,0-.29-.139,7.262,7.262,0,0,0-3.189-.364c-.336.108-.406.329-.156.468.16.1,1.007.222,1.913.427,2.149.478,2.97,1.31,2.181,2.551-.648,1.063-3.25,1.7-6.819,1.089a3.632,3.632,0,0,0-.712-.171l-.015-2.019a2.736,2.736,0,0,1,.639.181,8.859,8.859,0,0,0,3.215.513c.5-.047.708-.278.458-.471a17.726,17.726,0,0,0-1.988-.39c-2.22-.469-2.832-1.277-2.2-2.445.507-.948,2.209-1.568,5.011-1.421a14.179,14.179,0,0,1,1.491.157,2.561,2.561,0,0,1,.449.094Z" fill="#fff" fill-rule="evenodd"/>
          <path id="Trazado_44833" data-name="Trazado 44833" d="M4752.779,1245.252a3.313,3.313,0,1,0-3.336-3.289,3.312,3.312,0,0,0,3.336,3.289Z" fill="#fff" fill-rule="evenodd"/>
          <path id="Trazado_44834" data-name="Trazado 44834" d="M4745.491,1245.3a3.313,3.313,0,1,0-3.337-3.289,3.313,3.313,0,0,0,3.337,3.289Z" fill="#fff" fill-rule="evenodd"/>
          <path id="Trazado_44835" data-name="Trazado 44835" d="M4752.727,1237.964a3.313,3.313,0,1,0-3.337-3.289,3.313,3.313,0,0,0,3.337,3.289Z" fill="#fff" fill-rule="evenodd"/>
          <path id="Trazado_44836" data-name="Trazado 44836" d="M4745.439,1238.016a3.313,3.313,0,1,0-3.337-3.289,3.313,3.313,0,0,0,3.337,3.289Z" fill="#fff" fill-rule="evenodd"/>
        </g>
        <path id="Trazado_44837" data-name="Trazado 44837" d="M4733.932,1238.644l-28.357,9.9,28.8.347Z" fill="#2553e5"/>
      </g>
      <g id="Grupo_42439" data-name="Grupo 42439">
        <path id="Trazado_44838" data-name="Trazado 44838" d="M4776.1,1352.659c11.56,7.112,26.158,17.425,43.739,32.332,0,0,15.628,13.126,8.967,20.3s-19.492,4.788-23.205,8.661l.1-3.92a47.638,47.638,0,0,1,11.62-2.581c6.517-.6,13.25-3.381,9.262-10.13-2.976-5.036-25.427-25.513-52.151-41.354" fill="#85dbf0"/>
        <path id="Trazado_44839" data-name="Trazado 44839" d="M4815.339,1353.619s6.246-11.641,11.56-13.477,9.829,2.65,7.864,8.1-9.328,10.36-11.988,20.958-5.609,41.774-16.047,44.635l-3.677,33.361s-18.728,11.538-44.349-3.943l4.881-37.576,16.216-39.884Z" fill="#f4b08e"/>
        <path id="Trazado_44840" data-name="Trazado 44840" d="M4812.088,1362.743l7.222,3.495c2.394-18.348,9.033-22,12.875-25.806a6.538,6.538,0,0,0-5.286-.29c-5.314,1.836-11.56,13.477-11.56,13.477l-1.617.554A49.877,49.877,0,0,0,4812.088,1362.743Z" fill="#e8a287"/>
        <path id="Trazado_44841" data-name="Trazado 44841" d="M4792.764,1357.677l-12.593,45.212-12.87,9.572s-9.475-1.968-18.4-19.4c-10.507-20.512-10.145-36.821-8.92-43.5s7.128-8.549,10.13-7.388,5.9,2.349,7.27,9.094c1.737,8.574,4.234,12.454,4.234,12.454,8.4-1.995,12.142-6.647,13.752-10.992C4775.362,1352.73,4786.024,1348.1,4792.764,1357.677Z" fill="#f4b08e"/>
        <path id="Trazado_44842" data-name="Trazado 44842" d="M4754.312,1344.586l-7.5-2.586a8.5,8.5,0,0,0-5.839,4.559l16.251,4.022A11.864,11.864,0,0,0,4754.312,1344.586Z" fill="#e8a287" opacity="0.57"/>
        <path id="Trazado_44843" data-name="Trazado 44843" d="M4790.551,1332.765s12.262-4.06,15.761,7.855a35.211,35.211,0,0,1-.3,21.347l-22.725,7.215Z" fill="#f4b08e"/>
        <path id="Trazado_44844" data-name="Trazado 44844" d="M4795.1,1358.233s3.147-9.028,2.657-15.687c-.425-5.79-2.013-8.678-4.121-10.611-2.62,0-3.085.83-3.085.83l-.475,2.384-2.424,20.908Z" fill="#e8a287"/>
        <path id="Trazado_44845" data-name="Trazado 44845" d="M4802.331,1338.786s15.432-4.43,16.277,10.032-2.329,20.87-2.329,20.87l-12.452-8.448Z" fill="#f4b08e"/>
        <path id="Trazado_44846" data-name="Trazado 44846" d="M4805.314,1338.314s6.957,5.192,2.115,22.147l-2.609-.737S4809.049,1347.019,4805.314,1338.314Z" fill="#e8a287"/>
        <g id="Grupo_42438" data-name="Grupo 42438">
          <path id="Trazado_44847" data-name="Trazado 44847" d="M4721.538,1314.277l4.028,1.41s-7.894,25.538-12.043,30.468l-5-12.388,4.819-8.72Z" fill="#0e7992"/>
          <g id="Grupo_42436" data-name="Grupo 42436">
            <path id="Trazado_44848" data-name="Trazado 44848" d="M4700.986,1316.418l-2.108,4.53-.994.267s1.568-4.661,2.1-4.862A1.291,1.291,0,0,1,4700.986,1316.418Z" fill="#bda232"/>
            <path id="Trazado_44849" data-name="Trazado 44849" d="M4697.965,1321.026l.913-.079,1.946.444-.275.838-2.467-.743Z" fill="#ceb33e"/>
            <path id="Trazado_44850" data-name="Trazado 44850" d="M4700.548,1322.23l-3.92-.748a2.285,2.285,0,0,0,1,1.595c.828.4,10.661,3.087,10.661,3.087l2.795-3.515Z" fill="#bda232"/>
            <path id="Trazado_44851" data-name="Trazado 44851" d="M4713.132,1318.6l-12.124-2.974a2.37,2.37,0,0,0-1.445.018c-.592.28-2.692,4.715-2.864,5.169a.966.966,0,0,0,.29,1.2c.391.244,12.8,3.037,12.8,3.037Zm-13.309,3.085-1.126-.27a.6.6,0,0,1-.406-.843l1.725-3.679a.6.6,0,0,1,.679-.333l1.2.27a.6.6,0,0,1,.41.853l-1.8,3.68A.6.6,0,0,1,4699.823,1321.685Z" fill="#fccc05"/>
          </g>
          <g id="Grupo_42437" data-name="Grupo 42437">
            <path id="Trazado_44852" data-name="Trazado 44852" d="M4696.67,1327.974l-2.108,4.53-.994.267s1.569-4.661,2.1-4.862A1.291,1.291,0,0,1,4696.67,1327.974Z" fill="#bda232"/>
            <path id="Trazado_44853" data-name="Trazado 44853" d="M4693.649,1332.583l.913-.078,1.946.444-.276.838-2.466-.743Z" fill="#ceb33e"/>
            <path id="Trazado_44854" data-name="Trazado 44854" d="M4696.232,1333.786l-3.92-.748a2.291,2.291,0,0,0,1,1.6c.827.4,12.944,3.259,12.944,3.259l.511-3.688Z" fill="#bda232"/>
            <path id="Trazado_44855" data-name="Trazado 44855" d="M4708.816,1330.157l-12.124-2.974a2.365,2.365,0,0,0-1.444.017c-.593.28-2.693,4.715-2.864,5.169a.968.968,0,0,0,.289,1.2c.392.245,12.8,3.037,12.8,3.037Zm-13.308,3.085-1.127-.27a.6.6,0,0,1-.4-.843l1.724-3.68a.6.6,0,0,1,.679-.333l1.2.27a.6.6,0,0,1,.41.854l-1.8,3.68A.6.6,0,0,1,4695.508,1333.242Z" fill="#fccc05"/>
          </g>
          <path id="Trazado_44856" data-name="Trazado 44856" d="M4722.68,1315.827s17.623,2.512,17.629,18.529l-2.844,7.548s-5.92,11.982-25.507,2.722A28.744,28.744,0,0,1,4722.68,1315.827Z" fill="#2bbee0"/>
          <path id="Trazado_44857" data-name="Trazado 44857" d="M4711.958,1344.626c19.587,9.26,25.507-2.722,25.507-2.722l2.844-7.548a17.193,17.193,0,0,0-2.377-9.051c-6.69,14.063-20.445,12.282-26.462,10.7A26.923,26.923,0,0,0,4711.958,1344.626Z" fill="#2bbee0" opacity="0.2" style="mix-blend-mode: multiply;isolation: isolate"/>
          <path id="Trazado_44858" data-name="Trazado 44858" d="M4743.9,1335.415l-3.506,7.879a8.581,8.581,0,0,1-3.982-.775s-1.476-1.864.463-5.747,3.763-3.981,3.763-3.981a8.1,8.1,0,0,1,3.639,1.666Z" fill="#006070"/>
          <path id="Trazado_44859" data-name="Trazado 44859" d="M4736.413,1342.519a8.581,8.581,0,0,0,3.982.775l2.34-5.26a7.4,7.4,0,0,1-6.34-.162C4735.218,1341.007,4736.413,1342.519,4736.413,1342.519Z" fill="#006070" opacity="0.16" style="mix-blend-mode: multiply;isolation: isolate"/>
          <path id="Trazado_44860" data-name="Trazado 44860" d="M4717.521,1312.738s-9.411,6.862-11.5,16.782.523,15.358.523,15.358a1.593,1.593,0,0,0,.986,1.014c.771.245,5.05.935,5.05.935s1.079.03,1.047-1.375-1.731-9.329.969-16.194,10.667-13.126,10.667-13.126a.875.875,0,0,0-.066-1.478c-.7-.509-4.83-2.6-4.83-2.6A3.052,3.052,0,0,0,4717.521,1312.738Z" fill="#4295a8"/>
          <path id="Trazado_44861" data-name="Trazado 44861" d="M4744.551,1335.84s.213-1.265-.437-1.473c-.824-.265-2.8,3.034-3.618,5.33s-.63,3.452-.1,3.6S4744.189,1338.725,4744.551,1335.84Z" fill="#0e7992"/>
          <path id="Trazado_44862" data-name="Trazado 44862" d="M4774.392,1356.209c-10.755-6.375-22.184-12.021-33.348-15.7a3.409,3.409,0,0,1,1.526-3.545s11.3,2.16,33.537,15.837l.073.063a17.267,17.267,0,0,1-.824,1.822A15.239,15.239,0,0,1,4774.392,1356.209Z" fill="#85dbf0"/>
        </g>
        <path id="Trazado_44863" data-name="Trazado 44863" d="M4792.764,1357.677l1.584-5.687s5.2-21.173-6.556-26.811c-9.445-4.531-15.983,5.071-29.477,5.016-11.087-.045-14.012,9.332-3.078,12.87,9.109,2.947,21.069.387,21.069.387a19.2,19.2,0,0,1-.944,9.278Z" fill="#f4b08e"/>
        <path id="Trazado_44864" data-name="Trazado 44864" d="M4776.115,1341.981s4.183,17.227-17,22.168C4759.116,1364.149,4782.466,1364.884,4776.115,1341.981Z" fill="#e8a287"/>
        <path id="Trazado_44865" data-name="Trazado 44865" d="M4787.546,1360.023s18.527.591,31.36,11.252Z" fill="#e8a287"/>
        <path id="Trazado_44866" data-name="Trazado 44866" d="M4762.98,1410.32l-4.278,32.933a62.479,62.479,0,0,0,7.547,3.906l4.4-34.158A33.959,33.959,0,0,1,4762.98,1410.32Z" fill="#e8a287" opacity="0.8"/>
      </g>
      <g id="Grupo_42440" data-name="Grupo 42440">
        <path id="Trazado_44867" data-name="Trazado 44867" d="M4728.76,1276.958l10.581,7.174-10.3,5.756,3.868,2.1-14.814,9.67,6.334-9.64-3.839-3.177,5.793-3.36-4.284-3.152Z" fill="#fccc05"/>
        <path id="Trazado_44868" data-name="Trazado 44868" d="M4739.341,1284.132l-3.324-2.254-10.912,7.559,2.766,2.328-9.473,9.7,14.509-9.471-3.868-2.1Z" fill="#bda232" opacity="0.14"/>
      </g>
      <path id="Trazado_44869" data-name="Trazado 44869" d="M4764.481,1276.671l11.378,11.639-21.085,3.613,5.717,4.338-20.954,5.883,10.889-8.6-6.792-5.186,20.2-5.156-6.539-4.745Z" fill="#fccc05"/>
      <g id="Grupo_42441" data-name="Grupo 42441">
        <path id="Trazado_44870" data-name="Trazado 44870" d="M4767.029,1308.371l3.062,12.411-11.507-2.616,1.466,4.152-17.479-2.727,11.158-2.926-.726-4.93,6.554,1.38-1.074-5.209Z" fill="#fccc05"/>
        <path id="Trazado_44871" data-name="Trazado 44871" d="M4770.091,1320.782l-.962-3.9-13.167-1.685.5,3.581-13.529.868,17.12,2.671-1.466-4.152Z" fill="#bda232" opacity="0.14"/>
      </g>
      <path id="Trazado_44872" data-name="Trazado 44872" d="M4754.774,1291.924l21.085-3.613-2.184-2.233-23.068,4.209,6.267,5.251-17.278,6.59,20.9-5.867Z" fill="#bda232" opacity="0.14"/>
      <g id="Grupo_42442" data-name="Grupo 42442">
        <path id="Trazado_44873" data-name="Trazado 44873" d="M4806.4,1222.152s4.066,20.846.434,20.853C4803.743,1243.012,4804.98,1228.516,4806.4,1222.152Z" fill="#fccc05"/>
        <path id="Trazado_44874" data-name="Trazado 44874" d="M4829.552,1245.026s-20.846,4.066-20.854.435C4808.691,1242.374,4823.187,1243.612,4829.552,1245.026Z" fill="#fccc05"/>
        <path id="Trazado_44875" data-name="Trazado 44875" d="M4807.208,1268.588s-4.066-20.846-.435-20.854C4809.86,1247.727,4808.622,1262.223,4807.208,1268.588Z" fill="#fccc05"/>
        <path id="Trazado_44876" data-name="Trazado 44876" d="M4783.823,1245.485s20.846-4.066,20.853-.434C4804.683,1248.137,4790.187,1246.9,4783.823,1245.485Z" fill="#fccc05"/>
      </g>
      <g id="Grupo_42443" data-name="Grupo 42443" transform="translate(15 -17.071)">
        <path id="Trazado_44877" data-name="Trazado 44877" d="M4636.968,1386.96s5.907,30.283.631,30.3C4633.115,1417.265,4634.913,1396.205,4636.968,1386.96Z" transform="translate(5.482)" fill="#fccc05"/>
        <path id="Trazado_44878" data-name="Trazado 44878" d="M4669.624,1414.63s-30.284,5.906-30.295.631C4639.319,1410.777,4660.378,1412.575,4669.624,1414.63Z" transform="translate(6.466 5.56)" fill="#fccc05"/>
        <path id="Trazado_44879" data-name="Trazado 44879" d="M4638.057,1447.768s-5.907-30.283-.632-30.294C4641.91,1417.464,4640.112,1438.522,4638.057,1447.768Z" transform="translate(5.573 6.65)" fill="#fccc05"/>
        <path id="Trazado_44880" data-name="Trazado 44880" d="M4609.659,1415.3s30.283-5.907,30.3-.632C4639.963,1419.149,4618.9,1417.352,4609.659,1415.3Z" transform="translate(0 5.56)" fill="#fccc05"/>
      </g>
    </g>
    <path id="Trazado_44881" data-name="Trazado 44881" d="M4697.534,1225.53s2.339,4.356-.4,6.177c-4.591,3.056-4.4,2.571-6.778,6.534l4.8,4.07a13.335,13.335,0,0,1,5.39-6.641c4.123-2.57,3.568-8.176,2.537-9.961Z" transform="translate(3 -3)" fill="#dedc00"/>
    <path id="Trazado_44882" data-name="Trazado 44882" d="M4799.953,1289.908s3.632,13.49,18.04,7.46l-.551,10.054s-11.831,2.892-21.693-9.409Z" transform="translate(4 1)" fill="#35dbcf"/>
    <g id="Grupo_42445" data-name="Grupo 42445" transform="matrix(-0.469, -0.883, 0.883, -0.469, 5687.82, 6166.363)">
      <path id="Trazado_44883" data-name="Trazado 44883" d="M4687.6,1372.772s-7.942,7.633-17.17,3.565l1.283,7.348S4684.695,1385.394,4687.6,1372.772Z" transform="translate(0 -0.24)" fill="#906df2"/>
      <path id="Trazado_44884" data-name="Trazado 44884" d="M4687.155,1368.459s-1.768,15.357-15.366,14.987c0,0,15.019,3.625,19.942-9.918Z" transform="translate(-0.075 0)" fill="#a176ff"/>
    </g>
    <path id="Trazado_44885" data-name="Trazado 44885" d="M4682.1,1418.8s7.961.289,12.233,7.121l2.292-6.892s-5.31-6-13.281-5.9Z" transform="translate(-69 14.009)" fill="#5224e2"/>
    <path id="Trazado_44886" data-name="Trazado 44886" d="M4717.58,1389.926s7.817,4.75.729,10.717l4.756,3.06s8.942-5.08.476-16.358Z" transform="translate(-4 36.246)" fill="#910c55"/>
    <path id="Trazado_44887" data-name="Trazado 44887" d="M4671.679,1341.261s-5.859,3.3-8.41-.371c-4.281-6.158-3.615-5.912-9.069-9.038l-5.4,6.633a18.133,18.133,0,0,1,9.177,7.148c3.608,5.535,11.215,4.628,13.614,3.178Z" fill="#2fac66"/>
    <path id="Trazado_44888" data-name="Trazado 44888" d="M4830.018,1435.069s-5.03.708-5.815-2.576c-1.317-5.512-.916-5.156-3.893-8.856l-5.628,3.179a13.7,13.7,0,0,1,4.489,7.557c1.014,4.888,6.617,6.344,8.7,5.985Z" transform="translate(0 3.53)" fill="#efb800"/>
  </g>
</svg>
