<svg xmlns="http://www.w3.org/2000/svg" width="496" height="550" viewBox="0 0 496 550">
  <g id="Grupo_40092" data-name="Grupo 40092" transform="translate(-496 -70)">
    <rect id="Rectángulo_3773" data-name="Rectángulo 3773" width="496" height="550" transform="translate(496 70)" fill="none"/>
    <g id="Grupo_34808" data-name="Grupo 34808" transform="translate(-764.009 -13.608)">
      <g id="Grupo_33589" data-name="Grupo 33589" transform="translate(1607.85 300.234)">
        <path id="Unión_2" data-name="Unión 2" d="M1732.474,380.432h-52.184c0-19.8,28.609-19.44,28.609-19.44s2.046-15.914,18.666-15.914a16.211,16.211,0,0,1,14.975,8.371c7.58-1.129,17.4-.054,21.9,11.084,0,0,22.153.234,26.1,15.9Z" transform="translate(-1680.291 -345.059)" fill="#85dbf0"/>
      </g>
      <g id="Grupo_33588" data-name="Grupo 33588" transform="translate(1280.462 439.584)">
        <path id="Unión_1" data-name="Unión 1" d="M1352.256,558.948h-71.794c4.886-19.368,32.269-19.662,32.269-19.662,5.561-13.779,17.719-15.094,27.093-13.7,3.021-5.24,8.525-10.339,18.505-10.339,20.535,0,23.086,19.67,23.086,19.67s35.359-.445,35.359,24.036Z" transform="translate(-1280.462 -515.243)" fill="#85dbf0"/>
      </g>
      <path id="Trazado_39126" data-name="Trazado 39126" d="M1607.547,307.855s22.145,3.049,25.982-6.094c4.441-10.581-2.246-20.163-9.828-21.345l4.551-4.691s19.087,10.552,11.009,27.381c-5.557,11.578-20.548,10.1-31.581,8.9Z" transform="translate(-59.261 -32.263)" fill="#e00b71"/>
      <path id="Trazado_39127" data-name="Trazado 39127" d="M1613.939,325.759a47.769,47.769,0,0,1,19.56,45.84l5.687.531s7.437-37.422-25.19-49.5Z" transform="translate(-60.419 -40.762)" fill="#bc0f65"/>
      <path id="Trazado_39128" data-name="Trazado 39128" d="M1499.914,323.244S1490,335,1472.108,332.268c-19.976-3.044-18.223-23.1-18.223-23.1l-7.108,1.58s2.292,25.9,23.651,27.462,31.226-11.875,31.226-11.875Z" transform="translate(-30.133 -38.322)" fill="#e00b71"/>
      <path id="Trazado_39129" data-name="Trazado 39129" d="M1520.877,322.834s-20.941,24.268-9.491,48.966c0,0,72.319,2.266,87.719-3.909,0,0,10.662-26.713-7.78-41.546Z" transform="translate(-41.218 -40.798)" fill="#f80a73"/>
      <path id="Trazado_39130" data-name="Trazado 39130" d="M1530.268,325.118s-16.742,22.3-5.27,47.462l4.446,2.377s-9.5-33.242,4.318-49.521Z" transform="translate(-43.577 -41.212)" fill="#e00b71"/>
      <path id="Trazado_39131" data-name="Trazado 39131" d="M1587.7,322.834s22.629,16.922,14.193,48.243l5.746,1.089s5.618-30.256-13.678-49.332Z" transform="translate(-55.665 -40.798)" fill="#e00b71"/>
      <path id="Trazado_39132" data-name="Trazado 39132" d="M1585.019,336.689s13.429,16.706,7.563,37.988l-5.055-.253s7.07-12.822-4.643-35.445Z" transform="translate(-54.793 -43.309)" fill="#e00b71"/>
      <path id="Trazado_39133" data-name="Trazado 39133" d="M1543.845,353.877a15.013,15.013,0,0,0-3.132,16.849h3.132s-2.293-9.547,2.391-14.638Z" transform="translate(-46.912 -46.423)" fill="#e00b71"/>
      <path id="Trazado_39134" data-name="Trazado 39134" d="M1571.949,254.1s21.583-7.217,22.875-13.937-2.972-10.791-6.849-8.95-19.45,14.2-19.547,19.585S1571.949,254.1,1571.949,254.1Z" transform="translate(-52.173 -24.119)" fill="#fc4c96"/>
      <path id="Trazado_39135" data-name="Trazado 39135" d="M1555.306,257.678s-20.95-12.7-19.053-19,9.466-7.366,9.466-7.366S1559.087,244.69,1555.306,257.678Z" transform="translate(-46.322 -24.217)" fill="#fc4c96"/>
      <path id="Trazado_39136" data-name="Trazado 39136" d="M1558.814,256.742s-21.32-19.387-17.3-26.581c5.3-9.5,36.883-10.039,43.287-1.172s-16.78,20.3-18.19,27.753Z" transform="translate(-47.205 -22.651)" fill="#f80a73"/>
      <path id="Trazado_39137" data-name="Trazado 39137" d="M1558.3,253.128s-12.99-25.162-10.137-28.263,5.26-2.424,6.447-1.147,8.554,28.009,7.133,29.311S1558.3,253.128,1558.3,253.128Z" transform="translate(-48.427 -22.646)" fill="#e00b71"/>
      <path id="Trazado_39138" data-name="Trazado 39138" d="M1567.051,249.235s9.732-26.593,13.947-26.591,5.344,2.233,5.208,3.971-14.831,25.252-16.752,25.087S1567.051,249.235,1567.051,249.235Z" transform="translate(-51.924 -22.646)" fill="#e00b71"/>
      <g id="Grupo_34793" data-name="Grupo 34793" transform="translate(1425.615 488.55)">
        <path id="Trazado_39139" data-name="Trazado 39139" d="M1475.73,619.839s-6.019,5.219-9.956,3.651-2.433-5.85-2.433-5.85l9.183-4.547Z" transform="translate(-1458.698 -581.937)" fill="#a57758"/>
        <path id="Trazado_39140" data-name="Trazado 39140" d="M1478.6,624.781s-7.85,6.646-10.914,4.865c-3.095-1.8-1.409-5.144-1.409-5.144l8.923-5.824Z" transform="translate(-1459.197 -582.949)" fill="#a57758"/>
        <path id="Trazado_39141" data-name="Trazado 39141" d="M1482.629,631.244s-7.292,6.885-10.964,4.464a3.993,3.993,0,0,1-1.526-4.794l6.389-5.814Z" transform="translate(-1459.932 -584.113)" fill="#a57758"/>
        <path id="Trazado_39142" data-name="Trazado 39142" d="M1489.208,636.834s-6.366,7.27-9.864,5.617a4.367,4.367,0,0,1-2.406-5.9l6.523-5.017Z" transform="translate(-1461.141 -585.278)" fill="#a57758"/>
        <path id="Trazado_39143" data-name="Trazado 39143" d="M1536.766,575.4s-20.845,3.161-33.783,7.638-28.931,12.67-28.931,12.67a20.365,20.365,0,0,0-14.924,7,5.54,5.54,0,0,0-.138,7.145c2.91,3.867,11.826-.184,11.826-.184s-2.331,14,11.274,20.388c0,0,2.454,1.78,8.257-1.109s22.285-13.963,22.285-13.963a39.738,39.738,0,0,0,18.7-10.087,59.934,59.934,0,0,1,15.748-5.868l-2.491-21.761S1542.276,573.984,1536.766,575.4Z" transform="translate(-1457.733 -575.044)" fill="#a57758"/>
        <path id="Trazado_39144" data-name="Trazado 39144" d="M1536.766,575.4s-20.845,3.161-33.783,7.638-28.931,12.67-28.931,12.67a20.365,20.365,0,0,0-14.924,7,5.54,5.54,0,0,0-.138,7.145c2.91,3.867,11.826-.184,11.826-.184s-2.331,14,11.274,20.388c0,0,2.454,1.78,8.257-1.109s22.285-13.963,22.285-13.963a39.738,39.738,0,0,0,18.7-10.087,59.934,59.934,0,0,1,15.748-5.868l-2.491-21.761S1542.276,573.984,1536.766,575.4Z" transform="translate(-1457.733 -575.044)" fill="#a57758"/>
        <path id="Trazado_39145" data-name="Trazado 39145" d="M1545.831,576.454c3.793-.679,6.284-1.056,6.284-1.056,3.622-.929,5.864.169,6.976,1.03l1.4,5.608,1.943,16.987a59.936,59.936,0,0,0-15.747,5.868c-.029.029-.06.057-.09.087C1543.672,598.861,1539.333,586.484,1545.831,576.454Z" transform="translate(-1473.081 -575.044)" fill="#876148" opacity="0.58"/>
        <path id="Trazado_39146" data-name="Trazado 39146" d="M1472.393,615.678a16.179,16.179,0,0,1-9.236,3.149,5.145,5.145,0,0,0,.449,3.352,10.24,10.24,0,0,0,5.543-1.733A7.742,7.742,0,0,0,1472.393,615.678Z" transform="translate(-1458.697 -582.406)" fill="#876148" opacity="0.81"/>
        <path id="Trazado_39147" data-name="Trazado 39147" d="M1475.591,621.977s-3.792,5.365-9.32,3.123c0,0-.928,2.382-.174,3.453C1466.1,628.553,1473.814,627.795,1475.591,621.977Z" transform="translate(-1459.195 -583.547)" fill="#876148" opacity="0.81"/>
        <path id="Trazado_39148" data-name="Trazado 39148" d="M1477.627,627.761s-3.053,3.858-7.537,3.813a4.325,4.325,0,0,0,.089,2.9C1470.674,635.622,1476.825,633.044,1477.627,627.761Z" transform="translate(-1459.933 -584.595)" fill="#876148" opacity="0.81"/>
        <path id="Trazado_39149" data-name="Trazado 39149" d="M1482.217,635.12s-1.026.986-5.448,2.536a4.3,4.3,0,0,0,.771,4.147S1481.63,639.42,1482.217,635.12Z" transform="translate(-1461.14 -585.928)" fill="#876148" opacity="0.81"/>
      </g>
      <path id="Trazado_39150" data-name="Trazado 39150" d="M1544.594,577.263a4.635,4.635,0,0,0-.85-.829l0-.006c-.04-.031-.085-.063-.129-.094l-.063-.047c-.1-.073-.211-.146-.328-.219l-.086-.051c-.106-.063-.218-.126-.336-.187l-.075-.04c-.138-.07-.287-.136-.441-.2l-.113-.045c-.143-.056-.292-.109-.449-.158l-.078-.025c-.178-.053-.365-.1-.56-.142l-.142-.028c-.185-.036-.376-.067-.575-.09l-.071-.01c-.218-.023-.448-.036-.684-.042-.057,0-.116,0-.174,0-.232,0-.471,0-.72.023l-.046,0c-.26.02-.534.056-.814.1l-.2.035c-.288.051-.582.111-.89.189l-.525.082h0l-.363.058-.044.007-.464.075-.054.009-.466.075-.149.025-.593.1-.117.02-.563.095-.208.035-.755.129-.012,0-.788.138-.253.044-.781.138-.1.018-.042.007h0c-7.181,1.285-19.033,3.65-27.5,6.581-12.938,4.477-28.931,12.67-28.931,12.67a20.365,20.365,0,0,0-14.924,7,5.54,5.54,0,0,0-.138,7.145,4.455,4.455,0,0,0,3.208,1.616v0h-.006a5.542,5.542,0,0,0-.021,2.005c.008.051.017.1.028.154.024.114.054.23.089.346.017.06.037.119.057.179.04.117.085.233.137.35.016.035.034.07.052.1.034.071.069.143.109.214h.012a4.133,4.133,0,0,0,2.155,1.779,5.074,5.074,0,0,0-.454,1.968,2.315,2.315,0,0,0,.281,1.485h.005a3.624,3.624,0,0,0,1.578,1.691,2.737,2.737,0,0,0,1.661.281,4.318,4.318,0,0,0,.088,2.872l.011.026,0,0a3.869,3.869,0,0,0,1.484,1.716,4.415,4.415,0,0,0,3.9.131v0h0a4.429,4.429,0,0,0,.368,3.605c.021.035.043.07.066.1.036.054.074.106.113.16.066.089.137.178.214.265l.01.012h0a5.518,5.518,0,0,0,1.8,1.3c1.734.819,4.17-.553,6.187-2.144.3.188,2.8,1.573,8.226-1.131,5.8-2.89,22.285-13.964,22.285-13.964a39.766,39.766,0,0,0,18.613-10h0c.031-.029.061-.057.09-.087,0,0,.442-.254,1.24-.663.3-.153.649-.328,1.043-.52.264-.128.547-.264.85-.4s.624-.288.963-.439a58.6,58.6,0,0,1,11.652-3.842Z" transform="translate(-32.118 -86.494)" fill="#876148" opacity="0.79"/>
      <path id="Trazado_39151" data-name="Trazado 39151" d="M1608.515,492.587l5.945-4.465s-2.214-3.876-8.272-2.126Z" transform="translate(-59.015 -70.278)" fill="#422c9b"/>
      <path id="Trazado_39152" data-name="Trazado 39152" d="M1591.318,484.181s1.537,16.865-1.2,26.364c0,0-52.173,22.293-87.261,2.132,0,0-3.666-15.64.194-20.42s11.825,0,11.825,0,18.266,8.659,39.084,1.551S1583.434,482.242,1591.318,484.181Z" transform="translate(-40.008 -69.949)" fill="#a57758"/>
      <path id="Trazado_39153" data-name="Trazado 39153" d="M1504.761,510.928s6.1-13.768,86.417-9.806l-3.36-18.5s-34.184,14.522-44.889,12.16-35.38-5.353-35.38-5.353S1493.783,500.672,1504.761,510.928Z" transform="translate(-39.868 -69.749)" fill="#876148" opacity="0.58"/>
      <path id="Trazado_39154" data-name="Trazado 39154" d="M1530.623,549.645a29.776,29.776,0,0,1,13.7,4.219L1617.6,518.13c-10.662-20.742-34.464-10.275-34.464-10.275s-11.286,7.367-47.257,8.336-56.952-6.6-56.952-6.6c-18.672-4.378-30.177,11.445-30.177,11.445l60.677,40.451C1521.058,549.858,1526.635,549.606,1530.623,549.645Z" transform="translate(-30.49 -73.842)" fill="#f80a73"/>
      <path id="Trazado_39155" data-name="Trazado 39155" d="M1621.946,513.53l17.931-10.123s33.005-.161,40.613,12.159c9.758,15.8-3.787,32.53-3.787,32.53Z" transform="translate(-61.87 -73.514)" fill="#f80a73"/>
      <path id="Trazado_39156" data-name="Trazado 39156" d="M1653.023,525.218c1.033.258,15.718,15.482,15.718,15.482s-.956,20.963-44.007,34.145-61.4,15.767-61.4,15.767-18.184-17.69-13.36-33.271l77.2-32.223Z" transform="translate(-48.683 -77.448)" fill="#f80a73"/>
      <path id="Trazado_39157" data-name="Trazado 39157" d="M1633.974,521.664l-83.982,35.051s-2.773,7.464,2.318,17.814c0,0,.18-.42.544-1.141,2.849,10.98,7.406,22.959,7.406,22.959l43.375-15.93c-9.111-7.071-30.924-10.688-32.061-19.123-.557-4.128,5.426-7.184,8.846-8.578q1.071-.394,2.291-.84h0C1598.211,546.208,1630.545,534.384,1633.974,521.664Z" transform="translate(-48.697 -76.822)" fill="#e00b71"/>
      <path id="Trazado_39158" data-name="Trazado 39158" d="M1549.148,573.29a23.58,23.58,0,0,1,.266-5.836l10.817,3.688v3.231s27.727,7.826,39.746,15.674l-8.4,3.255Z" transform="translate(-48.667 -85.118)" fill="#bcb5b1" opacity="0.2" style="mix-blend-mode: multiply;isolation: isolate"/>
      <path id="Trazado_39159" data-name="Trazado 39159" d="M1499.8,515.082s47.828,12.93,94.428-5.114l-2.794-2.6s-42.535,15.426-89.866,4.644Z" transform="translate(-39.74 -74.233)" fill="#e00b71"/>
      <path id="Trazado_39160" data-name="Trazado 39160" d="M1471,523l-17.931-10.123s-33.005-.16-40.613,12.159c-9.758,15.8,3.787,32.53,3.787,32.53Z" transform="translate(-23.274 -75.23)" fill="#f80a73"/>
      <path id="Trazado_39161" data-name="Trazado 39161" d="M1591.206,465.973s7.421-32.348-14.562-72.4c0,0-20.031,9.28-48.193.192,0,0-33.067,11.708-21,82.288,0,0,31.525,4.652,46.269,1.421S1583.082,465.327,1591.206,465.973Z" transform="translate(-40.645 -53.615)" fill="#fccc05"/>
      <path id="Trazado_39162" data-name="Trazado 39162" d="M1584.173,413.214c-15.851,46.636-58.008,45.128-79.317,41.023a176.224,176.224,0,0,0,2.6,25.375s31.525,4.653,46.269,1.422,29.365-12.148,37.489-11.5C1591.216,469.532,1596.728,445.5,1584.173,413.214Z" transform="translate(-40.655 -57.173)" fill="#dbb100" opacity="0.5"/>
      <path id="Trazado_39163" data-name="Trazado 39163" d="M1509.106,491.985l6.474-2.584s19.188,5.3,38.866,1.938,26.528-11.761,41.132-9.435l1.293,5.486s-4.136-5.486-29.263,4.465C1544.383,501.054,1516.6,495.732,1509.106,491.985Z" transform="translate(-41.425 -69.546)" fill="#6d31fd"/>
      <path id="Trazado_39164" data-name="Trazado 39164" d="M1531.457,376.795s1.931-8.095,7.016-8.127,12.665,5.154,22.229,4.063,14.6-4.193,17.964-4.064,8.789,3.164,10.081,7.527-9.951,12.866-9.951,12.866S1528.318,401.723,1531.457,376.795Z" transform="translate(-45.45 -49.102)" fill="#006070"/>
      <path id="Trazado_39165" data-name="Trazado 39165" d="M1523.208,374.43s38.5,9.131,71.408.02c0,0-10.181,19.818-36.958,18.871C1538.187,392.633,1523.208,374.43,1523.208,374.43Z" transform="translate(-43.98 -50.147)" fill="#a57758"/>
      <path id="Trazado_39166" data-name="Trazado 39166" d="M1575.139,390.376l-8.692-2.253-15.774,2.253v-30.26h24.466Z" transform="translate(-48.957 -47.553)" fill="#a57758"/>
      <path id="Trazado_39167" data-name="Trazado 39167" d="M1536.51,387.1s22.86,9.274,48.235.91v4.9s-15.773,9.955-49.989-.319Z" transform="translate(-46.073 -52.441)" fill="#6d31fd"/>
      <path id="Trazado_39168" data-name="Trazado 39168" d="M1596.072,370.447s4.409-3.988,24.343,0c0,0,1.629,43.3,8.012,60,6.721,17.576,5.17,29.591,4.911,33.922,0,0,7.125,6.633,1.624,18.147l-28.682,3.4s-24.433-53.33-17.27-96.857Z" transform="translate(-55.664 -49.104)" fill="#2bbee0"/>
      <path id="Trazado_39169" data-name="Trazado 39169" d="M1521.136,387.228s2.722.194,2.525,9.111-2.913,52.789-13.38,67.59-16.672,21.972-16.672,21.972-19.842-4.151-27.527-1.64c0,0-4.652-15.225,7.754-22.979a105.115,105.115,0,0,0,4.013-27.664c.046-9.661,4.558-16.353,6.261-25.84,4.07-22.681.536-30.477.536-30.477s26.9-5.281,37.513-1.457S1521.136,387.228,1521.136,387.228Z" transform="translate(-33.475 -50.151)" fill="#2bbee0"/>
      <path id="Trazado_39170" data-name="Trazado 39170" d="M1529.623,391s1.675,1.616,1.547,9.37-1.551,41.743-10.6,61-20.936,28.973-20.936,28.973-2.122-.262-1.319-1.694,13.693-14.962,18.637-24.695,8.789-27.01,9.693-37.35,2.692-26.938,1.475-33.307C1528.121,393.294,1527.737,390.686,1529.623,391Z" transform="translate(-39.438 -53.143)" fill="#c9ebf5"/>
      <path id="Trazado_39171" data-name="Trazado 39171" d="M1510.694,333.953s-2.822,6.724-.941,11.427c0,0,0,1.41,4.328.564,0,0-3.2.753-1.131-10.533Z" transform="translate(-41.426 -42.813)" fill="#dbb100"/>
      <circle id="Elipse_1321" data-name="Elipse 1321" cx="7.834" cy="7.834" r="7.834" transform="translate(1542.274 277.713)" fill="#a57758"/>
      <circle id="Elipse_1322" data-name="Elipse 1322" cx="7.834" cy="7.834" r="7.834" transform="translate(1466.266 278.279)" fill="#a57758"/>
      <path id="Trazado_39172" data-name="Trazado 39172" d="M1575.139,372.178v-6.209h-24.465v7.606S1562.906,379.2,1575.139,372.178Z" transform="translate(-48.957 -48.614)" fill="#876148"/>
      <g id="Grupo_34794" data-name="Grupo 34794" transform="translate(1504.905 218.621)">
        <path id="Trazado_39173" data-name="Trazado 39173" d="M1575.293,252.086s12.214-14.539,25.008-.775a18.363,18.363,0,0,1,2.344,3.49l-4.41,2.954s-4.8-8.938-10.524-8.691-10.23,5.238-10.23,5.238Z" transform="translate(-1558.322 -245.388)" fill="#bc0f65"/>
        <path id="Trazado_39174" data-name="Trazado 39174" d="M1556.122,262.036s-4.973-5.645,2.867-10.214,16.56-1.22,17.23,5.376S1556.122,262.036,1556.122,262.036Z" transform="translate(-1554.567 -246.172)" fill="#6d31fd"/>
        <path id="Trazado_39175" data-name="Trazado 39175" d="M1558.99,251.823c-5.276,3.074-4.749,6.633-3.84,8.634a8.782,8.782,0,0,1,4.04-4.139c6.737-3.925,14.119-2,16.489,2.8a2.651,2.651,0,0,0,.54-1.919C1575.549,250.6,1566.83,247.254,1558.99,251.823Z" transform="translate(-1554.567 -246.172)" fill="#a176ff" opacity="0.5"/>
      </g>
      <circle id="Elipse_1323" data-name="Elipse 1323" cx="37.913" cy="37.913" r="37.913" transform="translate(1474.544 245.993)" fill="#a57758"/>
      <path id="Trazado_39176" data-name="Trazado 39176" d="M1518.156,315.267l4.7-3.776s8.7-.754,13.6-4.227c0,0,23.543,2.75,35.078-.762,0,0,13.2,7.911,20.431,8.765l-1.5-18.295-57.849-5.267-16.285,12.869Z" transform="translate(-42.735 -35.158)" fill="#876148" opacity="0.58"/>
      <path id="Trazado_39177" data-name="Trazado 39177" d="M1515.545,313.011s1.127-2.488,1.484-10.534c0,0,10.011-1.275,14.776-6.918,0,0,18.49,4.579,33.6-2.257,0,0,7.524,5.642,19.437,4.89,0,0,.48,8.269,6.447,12.411,0,0,7.327-1.376,7.65-16.423s-13.219-24.827-18.611-26.458c0,0-13.793-16.05-34.608-6.27,0,0-23.116-2.257-30.178,15.549C1515.545,277,1495.786,299.6,1515.545,313.011Z" transform="translate(-41.001 -29.105)" fill="#f80a73"/>
      <path id="Trazado_39178" data-name="Trazado 39178" d="M1516.556,283.38s.809,12.978,5.347,19.514a10.6,10.6,0,0,1,1.408,2.4c0,1.387-4.535,2.257-5.393,1.275-1.454-1.664-7.23-11.432-6.1-20.836,0,0,.369-4.227,2.727-4.8C1516.717,280.41,1516.556,283.38,1516.556,283.38Z" transform="translate(-41.89 -33.196)" fill="#e00b71"/>
      <path id="Trazado_39179" data-name="Trazado 39179" d="M1547.733,261.545a36.021,36.021,0,0,0-10.674,20.977c-1.677,12.68-.445,14.415,1.786,14.247,2.508-.188,2.519-1.706,3.7-8.872,2.7-16.363,7.03-18.711,13.675-28.135,0,0-.279-.636-3.55-.47A8.617,8.617,0,0,0,1547.733,261.545Z" transform="translate(-46.349 -29.281)" fill="#e00b71"/>
      <path id="Trazado_39180" data-name="Trazado 39180" d="M1579.058,259.762s-6.927,5.185-8.683,21.286c-1.661,15.24.731,15.288,2.131,15.36,2.633.136,4.188-.556,4.326-3.009s-1.316-20.752,7.273-31.034a1.921,1.921,0,0,0-.376-2.6A3.468,3.468,0,0,0,1579.058,259.762Z" transform="translate(-52.424 -29.202)" fill="#e00b71"/>
      <path id="Trazado_39181" data-name="Trazado 39181" d="M1597.926,270.05s6.324,14.831.366,30.135a5.4,5.4,0,0,0,4.109,4.75s8.23-11.594,2.032-31.326C1602.052,266.022,1597.926,270.05,1597.926,270.05Z" transform="translate(-57.518 -31.041)" fill="#e00b71"/>
      <path id="Trazado_39182" data-name="Trazado 39182" d="M1557.319,331.708l-1.146-1.5c.058-.046,6.015-4.518,11.75.008l-1.169,1.48C1562.186,328.091,1557.515,331.558,1557.319,331.708Z" transform="translate(-49.953 -41.77)" fill="#fccc05"/>
      <path id="Trazado_39183" data-name="Trazado 39183" d="M1562.906,354.29a6.64,6.64,0,0,0,2.818-3.207c1.059-2.366,3.311-8.169,9.968-8.979s11.333,4.189,10.825,10.707a9.1,9.1,0,0,1-10.523,8.516c-4.272-.719-8.421-6.38-10-6.271C1564.563,355.154,1563.585,355.243,1562.906,354.29Z" transform="translate(-51.173 -44.274)" fill="#c7e8f9"/>
      <path id="Trazado_39184" data-name="Trazado 39184" d="M1561.264,354.583s1.28-1.878,2.3-1.494,1.172,2.693-.9,3.342c0,0,2.391.436,2.135,1.887s-3.436-.619-3.436-.619,2.006.619,2.284.171-1.75-1.366-1.75-1.366,1.835-1.088,1.6-1.857S1561.264,354.583,1561.264,354.583Z" transform="translate(-50.875 -46.271)" fill="#6d4d37"/>
      <path id="Trazado_39185" data-name="Trazado 39185" d="M1513.281,326.434a2.415,2.415,0,0,1,3.068,1.937c.5,2.6-1.422,3.133-2.309,3.024a1.088,1.088,0,0,1-.347-1.946c.774-.409,1.394.441,1.394.441S1515.906,327.107,1513.281,326.434Z" transform="translate(-42.172 -41.437)" fill="#876148"/>
      <path id="Trazado_39186" data-name="Trazado 39186" d="M1613.242,326.434a2.415,2.415,0,0,0-3.068,1.937c-.5,2.6,1.423,3.133,2.309,3.024a1.089,1.089,0,0,0,.347-1.946c-.774-.409-1.395.441-1.395.441S1610.617,327.107,1613.242,326.434Z" transform="translate(-59.722 -41.437)" fill="#876148"/>
      <rect id="Rectángulo_5686" data-name="Rectángulo 5686" width="1.885" height="7.822" transform="translate(1473.901 281.809) rotate(-67.689)" fill="#fccc05"/>
      <rect id="Rectángulo_5687" data-name="Rectángulo 5687" width="7.821" height="1.885" transform="translate(1542.822 283.033) rotate(-22.307)" fill="#fccc05"/>
      <rect id="Rectángulo_5688" data-name="Rectángulo 5688" width="27.944" height="13.634" transform="translate(1479.659 282.036)" fill="#1e1e21"/>
      <path id="Trazado_39187" data-name="Trazado 39187" d="M1534.594,322.834h11.941l-4.89,6.236h5.266l-4.514,7.4h-10.909l4.89-8.314h-4.89Z" transform="translate(-45.481 -40.798)" fill="#83838e"/>
      <rect id="Rectángulo_5689" data-name="Rectángulo 5689" width="27.944" height="13.634" transform="translate(1516.254 282.036)" fill="#1e1e21"/>
      <path id="Trazado_39188" data-name="Trazado 39188" d="M1580.076,322.834h11.941l-4.89,6.236h5.266l-4.514,7.4H1576.97l4.89-8.314h-4.89Z" transform="translate(-53.721 -40.798)" fill="#83838e"/>
      <path id="Trazado_39189" data-name="Trazado 39189" d="M1516,335.66c.459,2.265,1.705,9.818-2.438,11.77a2.986,2.986,0,0,1-3.668-1.881s4.487-1.32,3.76-9.66c0,0-.163-.779.824-.967A1.232,1.232,0,0,1,1516,335.66Z" transform="translate(-41.569 -42.982)" fill="#fccc05"/>
      <path id="Trazado_39190" data-name="Trazado 39190" d="M1615.936,324.682a1.388,1.388,0,0,1,.743-.591c1.023-.345,3.725-1.193,4.218-.724a2.97,2.97,0,0,1,.389,3.112c-.422.653-3.088.489-4.345.372a1.362,1.362,0,0,1-1.242-1.582A1.839,1.839,0,0,1,1615.936,324.682Z" transform="translate(-60.733 -40.87)" fill="#fccc05"/>
      <path id="Trazado_39191" data-name="Trazado 39191" d="M1582.885,345.434a10.792,10.792,0,0,1,3.9,8.511l2.352-.518s.2-6.442-4.533-8.793Z" transform="translate(-54.793 -44.748)" fill="#fff"/>
      <path id="Trazado_39192" data-name="Trazado 39192" d="M1554.906,508.758a1.37,1.37,0,0,1,2.4.654c.908,2.47-1.123,2.714-2,2.606a1.082,1.082,0,0,1-.345-1.936c.77-.407,1.387.438,1.387.438S1557.123,509.247,1554.906,508.758Z" transform="translate(-49.649 -74.391)" fill="#876148"/>
      <path id="Trazado_39193" data-name="Trazado 39193" d="M1545.628,371.245s-8.9-3.252-11.969-.618,3.573,5.588,3.573,5.588,2.816,1.068,1.844,3.749-4.09,9.467-5.312,10.345a3.461,3.461,0,0,1-3.441.392c-.96-.391-5.739-2.8-7.644-7.443,0,0-.768-1.45.315-4.855s5.437-9.234,7.951-10.313c3.828-1.643,8.669-.647,14.609,1.458Z" transform="translate(-43.837 -48.849)" fill="#0e7992"/>
      <path id="Trazado_39194" data-name="Trazado 39194" d="M1580.553,371.245s8.9-3.252,11.969-.618-3.573,5.588-3.573,5.588-2.816,1.068-1.844,3.749,4.09,9.467,5.312,10.345a3.461,3.461,0,0,0,3.441.392c.96-.391,5.738-2.8,7.645-7.443,0,0,.767-1.45-.316-4.855s-5.437-9.234-7.952-10.313c-3.827-1.643-8.668-.647-14.609,1.458Z" transform="translate(-54.37 -48.849)" fill="#0e7992"/>
      <path id="Trazado_39195" data-name="Trazado 39195" d="M1479.232,486.048s10.914-.85,15.257-16.552a3.4,3.4,0,0,1,4.323.367s-3.1,17.511-18.029,19.708A2.51,2.51,0,0,1,1479.232,486.048Z" transform="translate(-35.964 -67.262)" fill="#0e7992"/>
      <path id="Trazado_39196" data-name="Trazado 39196" d="M1633.167,483.11s-10.908.915-17.72-13.885a3.4,3.4,0,0,0-4.207,1.057s5.877,16.785,20.963,16.553A2.51,2.51,0,0,0,1633.167,483.11Z" transform="translate(-59.93 -67.262)" fill="#0e7992"/>
      <g id="Grupo_34795" data-name="Grupo 34795" transform="translate(1561.318 211.249)">
        <path id="Trazado_39197" data-name="Trazado 39197" d="M1724.722,265.608l1.81-3.489s3.877-7.754,4.458-13.635,1.81-11.631,6.139-12.083,6.2,9.046,5.428,13.828-10.22,19.565-10.22,19.565Z" transform="translate(-1641.808 -236.385)" fill="#a57758"/>
        <path id="Trazado_39198" data-name="Trazado 39198" d="M1743.98,246.039a12.414,12.414,0,0,0-3.015,1.868c-2.778,1.939-6.825,13.764-7.72,18.482l2.024,1.679,8.509-16.865.479-.9A22.237,22.237,0,0,0,1743.98,246.039Z" transform="translate(-1643.353 -238.134)" fill="#876148"/>
        <path id="Trazado_39199" data-name="Trazado 39199" d="M1734.022,270.5s3.888-21.066,10.8-21.712,1.033,19.773,1.033,19.773l-8.723,7.367Z" transform="translate(-1643.493 -238.63)" fill="#a57758"/>
        <path id="Trazado_39200" data-name="Trazado 39200" d="M1744.824,248.791c-6.914.646-10.8,21.712-10.8,21.712l3.113,5.428,8.723-7.367S1751.738,248.145,1744.824,248.791Z" transform="translate(-1643.493 -238.63)" fill="#a57758"/>
        <path id="Trazado_39201" data-name="Trazado 39201" d="M1713.664,268.887l1.268-9.592s-5.7,2.29-7.513-1.2,1.919-9.271,9.619-9.32,7.828,4.831,7.763,6.559-.9,10.192-.9,10.192Z" transform="translate(-1638.592 -238.63)" fill="#a57758"/>
        <path id="Trazado_39202" data-name="Trazado 39202" d="M1695.419,302.8s-1.68-9.791-1.034-16.511,5.17-10.339,12.795-13.441,13.828-5.04,13.828-5.04,12.536,9.273,14.217,17.5c0,0-10.081,8.223-17.448,11.066l-3.046,8.272S1701.236,307.038,1695.419,302.8Z" transform="translate(-1636.285 -242.079)" fill="#a57758"/>
        <path id="Trazado_39203" data-name="Trazado 39203" d="M1690.089,311.459s-.253-8.347,4.115-9.508c8.761-2.328,21.073,1.5,22.641,4.616,1.641,3.264.872,9.054.872,9.054Z" transform="translate(-1635.533 -248.134)" fill="#0e7992"/>
        <path id="Trazado_39204" data-name="Trazado 39204" d="M1626.9,359.284s-11.174,35.314,6.8,56.318c0,0,75.656,3.81,75.656-95.625,0,0,.824-6.072-2.666-8.2-3.276-2-9.644-6.639-26.849-3.829,0,0-6.736,1.268-7.318,7.71S1670.434,359.824,1626.9,359.284Z" transform="translate(-1623.462 -249.19)" fill="#4295a8"/>
        <path id="Trazado_39205" data-name="Trazado 39205" d="M1715.469,288.9s-.354-8.059,6.442-10.581a48.252,48.252,0,0,1,10.137-2.793s3.857-14.5,11.74-12.115l-10.6,19.258Z" transform="translate(-1640.131 -241.234)" fill="#876148"/>
        <path id="Trazado_39206" data-name="Trazado 39206" d="M1721.171,296.659l-6-3.075s-.725-9.047,6-12.86,11.639-3.424,11.639-3.424,4.653-13.958,9.951-13.829,2.778,8.4,2.132,10.339-2.908,6.462-3.424,8.53-13.829,10.4-16.413,11.631C1725.055,293.972,1722.1,294.843,1721.171,296.659Z" transform="translate(-1640.073 -241.292)" fill="#a57758"/>
        <path id="Trazado_39207" data-name="Trazado 39207" d="M1695.783,287.111s-7.431-3.926-7.382-10.759,2.391-8.82,3.691-9.886,8.754-7.173,11.594-3.877-1.28,8.626-4.769,9.353a11.789,11.789,0,0,1,4.686,3.344C1705.092,277.331,1695.783,287.111,1695.783,287.111Z" transform="translate(-1635.228 -240.957)" fill="#a57758"/>
        <path id="Trazado_39208" data-name="Trazado 39208" d="M1717.863,271.362s8.181-.387,13.231,3.877C1731.094,275.239,1722.391,272.654,1717.863,271.362Z" transform="translate(-1640.566 -242.72)" fill="#876148"/>
        <path id="Trazado_39209" data-name="Trazado 39209" d="M1709.339,277.861s-1.292,7.238-7.238,8.918C1702.1,286.779,1710.049,287.231,1709.339,277.861Z" transform="translate(-1637.71 -243.9)" fill="#876148"/>
      </g>
      <g id="Grupo_34796" data-name="Grupo 34796" transform="translate(1348.618 217.056)">
        <path id="Trazado_39210" data-name="Trazado 39210" d="M1387.891,272.7l-1.81-3.49s-3.877-7.754-4.458-13.634-1.81-11.631-6.139-12.084-6.2,9.047-5.428,13.829,10.22,19.565,10.22,19.565Z" transform="translate(-1364.82 -243.476)" fill="#a57758"/>
        <path id="Trazado_39211" data-name="Trazado 39211" d="M1370.178,253.13a12.406,12.406,0,0,1,3.015,1.869c2.779,1.938,6.826,13.764,7.72,18.481l-2.024,1.68-8.508-16.865-.48-.9A22.377,22.377,0,0,1,1370.178,253.13Z" transform="translate(-1364.82 -245.225)" fill="#876148"/>
        <path id="Trazado_39212" data-name="Trazado 39212" d="M1379.44,277.593s-3.887-21.065-10.8-21.712-1.034,19.774-1.034,19.774l8.724,7.366Z" transform="translate(-1363.984 -245.721)" fill="#a57758"/>
        <path id="Trazado_39213" data-name="Trazado 39213" d="M1368.639,255.882c6.914.647,10.8,21.712,10.8,21.712l-3.111,5.428-8.724-7.366S1361.725,255.236,1368.639,255.882Z" transform="translate(-1363.984 -245.721)" fill="#a57758"/>
        <path id="Trazado_39214" data-name="Trazado 39214" d="M1398.986,275.979l-1.268-9.593s5.7,2.291,7.514-1.2-1.92-9.27-9.619-9.32-7.829,4.831-7.764,6.559.9,10.193.9,10.193Z" transform="translate(-1368.073 -245.721)" fill="#a57758"/>
        <path id="Trazado_39215" data-name="Trazado 39215" d="M1412.108,309.9s1.68-9.791,1.034-16.511-5.169-10.339-12.794-13.441-13.829-5.041-13.829-5.041-12.535,9.274-14.216,17.5c0,0,10.08,8.223,17.447,11.066l3.047,8.271S1406.293,314.129,1412.108,309.9Z" transform="translate(-1365.258 -249.17)" fill="#a57758"/>
        <path id="Trazado_39216" data-name="Trazado 39216" d="M1420.354,318.55s.254-8.347-4.115-9.507c-8.761-2.329-21.072,1.5-22.641,4.617-1.641,3.264-.871,9.054-.871,9.054Z" transform="translate(-1368.926 -255.225)" fill="#0e7992"/>
        <path id="Trazado_39217" data-name="Trazado 39217" d="M1470.68,366.375s11.174,35.314-6.8,56.318c0,0-75.656,3.81-75.656-95.624,0,0-.824-6.072,2.665-8.2,3.277-2,9.645-6.64,26.849-3.829,0,0,6.736,1.268,7.319,7.709S1427.141,366.915,1470.68,366.375Z" transform="translate(-1368.127 -256.281)" fill="#4295a8"/>
        <path id="Trazado_39218" data-name="Trazado 39218" d="M1394.862,295.992s.354-8.059-6.442-10.581a48.313,48.313,0,0,0-10.138-2.793s-3.856-14.5-11.739-12.114l10.6,19.257Z" transform="translate(-1364.214 -248.325)" fill="#876148"/>
        <path id="Trazado_39219" data-name="Trazado 39219" d="M1388.586,303.751l6-3.076s.726-9.046-6-12.859-11.638-3.425-11.638-3.425-4.652-13.958-9.951-13.828-2.779,8.4-2.133,10.339,2.908,6.461,3.425,8.53,13.828,10.4,16.413,11.631C1384.7,301.064,1387.66,301.934,1388.586,303.751Z" transform="translate(-1363.699 -248.384)" fill="#a57758"/>
        <path id="Trazado_39220" data-name="Trazado 39220" d="M1417.222,294.2s7.432-3.925,7.383-10.759-2.391-8.82-3.691-9.886-8.755-7.173-11.594-3.877,1.279,8.627,4.769,9.353a11.8,11.8,0,0,0-4.687,3.344C1407.914,284.422,1417.222,294.2,1417.222,294.2Z" transform="translate(-1371.792 -248.048)" fill="#a57758"/>
        <path id="Trazado_39221" data-name="Trazado 39221" d="M1395.807,278.454s-8.182-.388-13.232,3.877C1382.575,282.331,1391.278,279.746,1395.807,278.454Z" transform="translate(-1367.119 -249.812)" fill="#876148"/>
        <path id="Trazado_39222" data-name="Trazado 39222" d="M1405.648,284.953s1.292,7.237,7.237,8.917C1412.885,293.87,1404.937,294.323,1405.648,284.953Z" transform="translate(-1371.291 -250.991)" fill="#876148"/>
      </g>
      <g id="Grupo_34797" data-name="Grupo 34797" transform="translate(1490.568 490.262)">
        <path id="Trazado_39223" data-name="Trazado 39223" d="M1622.134,632.727s5.231,6.009,9.348,5.008,3.227-5.453,3.227-5.453l-8.457-5.787Z" transform="translate(-1552.472 -586.078)" fill="#a57758"/>
        <path id="Trazado_39224" data-name="Trazado 39224" d="M1618.6,637.223s6.844,7.679,10.127,6.344c3.317-1.349,2.114-4.9,2.114-4.9l-8.021-7.015Z" transform="translate(-1551.832 -587.012)" fill="#a57758"/>
        <path id="Trazado_39225" data-name="Trazado 39225" d="M1613.708,643.142s6.258,7.837,10.233,5.954a3.992,3.992,0,0,0,2.181-4.534l-5.514-6.65Z" transform="translate(-1550.945 -588.146)" fill="#a57758"/>
        <path id="Trazado_39226" data-name="Trazado 39226" d="M1606.461,647.749s5.286,8.09,8.981,6.941a4.367,4.367,0,0,0,3.208-5.508l-5.757-5.88Z" transform="translate(-1549.632 -589.123)" fill="#a57758"/>
        <path id="Trazado_39227" data-name="Trazado 39227" d="M1550.579,577.937s20.2,6.044,32.383,12.286,26.874,16.592,26.874,16.592a20.362,20.362,0,0,1,13.8,9.014,5.539,5.539,0,0,1-.863,7.094c-3.422,3.422-11.684-1.836-11.684-1.836s.351,14.189-14.013,18.612c0,0-2.679,1.419-8.021-2.253S1568.94,620.5,1568.94,620.5a39.732,39.732,0,0,1-17.11-12.6,59.911,59.911,0,0,0-14.772-8.012l5.508-21.2S1545.321,575.767,1550.579,577.937Z" transform="translate(-1537.058 -577.134)" fill="#a57758"/>
        <path id="Trazado_39228" data-name="Trazado 39228" d="M1550.579,577.937s20.2,6.044,32.383,12.286,26.874,16.592,26.874,16.592a20.362,20.362,0,0,1,13.8,9.014,5.539,5.539,0,0,1-.863,7.094c-3.422,3.422-11.684-1.836-11.684-1.836s.351,14.189-14.013,18.612c0,0-2.679,1.419-8.021-2.253S1568.94,620.5,1568.94,620.5a39.732,39.732,0,0,1-17.11-12.6,59.911,59.911,0,0,0-14.772-8.012l5.508-21.2S1545.321,575.767,1550.579,577.937Z" transform="translate(-1537.058 -577.134)" fill="#a57758"/>
        <path id="Trazado_39229" data-name="Trazado 39229" d="M1556.652,579.861c-3.66-1.2-6.073-1.924-6.073-1.924-3.457-1.426-5.832-.653-7.053.044l-2.168,5.357-4.3,16.548a59.91,59.91,0,0,1,14.772,8.012l.077.1C1555.657,602.35,1561.684,590.7,1556.652,579.861Z" transform="translate(-1537.058 -577.134)" fill="#876148" opacity="0.3"/>
        <path id="Trazado_39230" data-name="Trazado 39230" d="M1626.959,629.078a16.177,16.177,0,0,0,8.706,4.409,5.148,5.148,0,0,1-.915,3.256,10.233,10.233,0,0,1-5.245-2.492A7.741,7.741,0,0,1,1626.959,629.078Z" transform="translate(-1553.346 -586.545)" fill="#876148" opacity="0.58"/>
        <path id="Trazado_39231" data-name="Trazado 39231" d="M1622.814,634.854s3,5.842,8.791,4.4c0,0,.586,2.488-.31,3.443C1631.294,642.693,1623.76,640.863,1622.814,634.854Z" transform="translate(-1552.595 -587.592)" fill="#876148" opacity="0.58"/>
        <path id="Trazado_39232" data-name="Trazado 39232" d="M1620.436,640.36s2.484,4.246,6.93,4.829a4.323,4.323,0,0,1-.493,2.856C1626.221,649.116,1620.492,645.7,1620.436,640.36Z" transform="translate(-1552.164 -588.59)" fill="#876148" opacity="0.58"/>
        <path id="Trazado_39233" data-name="Trazado 39233" d="M1615.315,647.068s.879,1.12,5.04,3.273a4.3,4.3,0,0,1-1.344,4S1615.3,651.409,1615.315,647.068Z" transform="translate(-1551.236 -589.805)" fill="#876148" opacity="0.58"/>
      </g>
      <path id="Trazado_39234" data-name="Trazado 39234" d="M1427.2,534.688c-1.033.258-15.718,15.482-15.718,15.482s.956,20.963,44.007,34.145,61.4,15.767,61.4,15.767,18.184-17.69,13.36-33.271l-77.2-32.223Z" transform="translate(-23.738 -79.164)" fill="#f80a73"/>
      <path id="Trazado_39235" data-name="Trazado 39235" d="M1453.959,531.134l83.982,35.051s2.773,7.464-2.318,17.815c0,0-8.525-20.154-31.576-26.433C1481.1,551.315,1456.091,538.53,1453.959,531.134Z" transform="translate(-31.434 -78.538)" fill="#e00b71"/>
      <path id="Trazado_39236" data-name="Trazado 39236" d="M1513.159,526.66s12.213,6.592,18.223,25.008C1531.382,551.668,1530.025,530.925,1513.159,526.66Z" transform="translate(-42.16 -77.727)" fill="#e00b71"/>
      <path id="Trazado_39237" data-name="Trazado 39237" d="M1583.775,526.66s-12.213,6.592-18.222,25.008C1565.553,551.668,1566.91,530.925,1583.775,526.66Z" transform="translate(-51.652 -77.727)" fill="#e00b71"/>
      <g id="Grupo_34798" data-name="Grupo 34798" transform="translate(1427.589 427.54)">
        <path id="Trazado_39238" data-name="Trazado 39238" d="M1460.294,510.674s-1.193-5.709,3.121-9.247c2.5-2.054,18.13-.26,25.46,2.343,6.361,2.258,7.429,3.1,6.979,5.557-.4,2.172-2.312,8.038-6.461,7.585-3.25-.355-5.816-4.1-12.795-3.9S1464.3,514.9,1460.294,510.674Z" transform="translate(-1460.143 -500.535)" fill="#006070"/>
        <path id="Trazado_39239" data-name="Trazado 39239" d="M1467.883,500.561c-1.387,1.562-3.941,5.206-5.011,11.745a9.731,9.731,0,0,0,3.959,1.135c1.014-3.376,3.207-9.94,5.689-12.784A43.515,43.515,0,0,0,1467.883,500.561Z" transform="translate(-1460.638 -500.535)" fill="#0e7992"/>
        <path id="Trazado_39240" data-name="Trazado 39240" d="M1477.931,501.076c-1.044,1.49-4.274,6.563-4.365,12.384,1.385-.1,2.854-.237,4.407-.311.517-3.094,1.767-8.81,4.231-11.468C1480.785,501.444,1479.344,501.239,1477.931,501.076Z" transform="translate(-1462.575 -500.633)" fill="#0e7992"/>
        <path id="Trazado_39241" data-name="Trazado 39241" d="M1488.513,502.845a24.2,24.2,0,0,0-3.951,10.851,16.025,16.025,0,0,1,4.234,1.467c.379-2.515,1.422-8.075,3.588-11.281C1491.228,503.514,1489.918,503.165,1488.513,502.845Z" transform="translate(-1464.567 -500.953)" fill="#0e7992"/>
        <path id="Trazado_39242" data-name="Trazado 39242" d="M1498.086,505.874a23.4,23.4,0,0,0-3.869,11.668,5.647,5.647,0,0,0,1.349.336,4.043,4.043,0,0,0,3.115-1,32.938,32.938,0,0,1,2.772-9.108A10.04,10.04,0,0,0,1498.086,505.874Z" transform="translate(-1466.317 -501.502)" fill="#0e7992"/>
      </g>
      <g id="Grupo_34799" data-name="Grupo 34799" transform="translate(1548.047 424.272)">
        <path id="Trazado_39243" data-name="Trazado 39243" d="M1642.9,506.682s1.193-5.71-3.12-9.247c-2.5-2.055-18.13-.26-25.459,2.342-6.361,2.259-7.429,3.1-6.979,5.557.4,2.172,2.312,8.038,6.462,7.586,3.25-.355,5.815-4.1,12.794-3.9S1638.894,510.908,1642.9,506.682Z" transform="translate(-1607.256 -496.543)" fill="#006070"/>
        <path id="Trazado_39244" data-name="Trazado 39244" d="M1641.1,496.57c1.388,1.561,3.941,5.206,5.011,11.745a9.725,9.725,0,0,1-3.959,1.135c-1.014-3.376-3.206-9.94-5.688-12.784A43.482,43.482,0,0,1,1641.1,496.57Z" transform="translate(-1612.548 -496.543)" fill="#0e7992"/>
        <path id="Trazado_39245" data-name="Trazado 39245" d="M1631.278,497.085c1.044,1.49,4.275,6.563,4.366,12.383-1.386-.1-2.855-.236-4.408-.31-.516-3.094-1.767-8.81-4.231-11.468C1628.425,497.453,1629.866,497.248,1631.278,497.085Z" transform="translate(-1610.834 -496.641)" fill="#0e7992"/>
        <path id="Trazado_39246" data-name="Trazado 39246" d="M1620.877,498.854a24.2,24.2,0,0,1,3.952,10.851,16.027,16.027,0,0,0-4.235,1.467c-.379-2.515-1.422-8.075-3.588-11.281C1618.162,499.523,1619.472,499.174,1620.877,498.854Z" transform="translate(-1609.022 -496.962)" fill="#0e7992"/>
        <path id="Trazado_39247" data-name="Trazado 39247" d="M1611.435,501.883a23.4,23.4,0,0,1,3.868,11.668,5.656,5.656,0,0,1-1.348.336,4.044,4.044,0,0,1-3.115-1,32.943,32.943,0,0,0-2.772-9.109A10.052,10.052,0,0,1,1611.435,501.883Z" transform="translate(-1607.403 -497.511)" fill="#0e7992"/>
      </g>
      <path id="Trazado_39248" data-name="Trazado 39248" d="M1552.807,253.575a15.74,15.74,0,0,0-6.914-2.595c-10.053-1.68-13.57,16.736-13.57,16.736h3.683s.762-8.107,6.558-12.421c2.363-1.758,5.863-.827,8.492.549a6.614,6.614,0,0,1,.628-1A14.8,14.8,0,0,1,1552.807,253.575Z" transform="translate(-45.632 -27.76)" fill="#bc0f65"/>
      <circle id="Elipse_1324" data-name="Elipse 1324" cx="1.399" cy="1.399" r="1.399" transform="translate(1510.827 276.097)" fill="#910c55"/>
      <g id="Grupo_34804" data-name="Grupo 34804" transform="translate(1538.929 352.266)">
        <g id="Grupo_34803" data-name="Grupo 34803">
          <g id="Grupo_34802" data-name="Grupo 34802">
            <g id="Grupo_34800" data-name="Grupo 34800" transform="translate(5.271)">
              <path id="Trazado_39249" data-name="Trazado 39249" d="M1611.363,413.412a3.33,3.33,0,0,1,0,4.7l-.243.242s2.677,2.073,1.35,4.077l1.606-1.607a7.163,7.163,0,0,0-10.13-10.13l-.243.242a3.269,3.269,0,0,0-.185,4.753l.429.429,2.573-2.573.139-.139a3.329,3.329,0,0,1,4.7,0" transform="translate(-1602.557 -408.605)" fill="#0e7992"/>
            </g>
            <g id="Grupo_34801" data-name="Grupo 34801" transform="translate(0 5.054)">
              <path id="Trazado_39250" data-name="Trazado 39250" d="M1600.927,423.8a3.33,3.33,0,0,1,0-4.7l.242-.242s-2.677-2.073-1.349-4.077l-1.606,1.607a7.163,7.163,0,0,0,10.13,10.13l.243-.243a3.268,3.268,0,0,0,.185-4.752l-.429-.43-2.574,2.574-.139.139a3.33,3.33,0,0,1-4.7,0" transform="translate(-1596.12 -414.777)" fill="#0e7992"/>
            </g>
          </g>
          <path id="Trazado_39251" data-name="Trazado 39251" d="M1608.185,416.691l-3.979,3.979a1.094,1.094,0,0,0,1.548,1.548l3.979-3.979a1.094,1.094,0,0,0-1.548-1.548Z" transform="translate(-1597.527 -410.012)" fill="#0e7992"/>
        </g>
      </g>
      <path id="Trazado_39252" data-name="Trazado 39252" d="M1514.341,337.013a7.642,7.642,0,0,1-.771-.252c-.089.53-.165,1.028-.231,1.5C1513.663,337.844,1514,337.428,1514.341,337.013Z" transform="translate(-42.192 -43.322)" fill="#bc0f65"/>
      <path id="Trazado_39253" data-name="Trazado 39253" d="M1507.792,334.99c-.074-.066-.156-.123-.228-.191-7.983,8.446-20.441,27.842-6.273,57.751l5.878-1.292s-14.093-25-.59-48.263A20.478,20.478,0,0,1,1507.792,334.99Z" transform="translate(-38.842 -42.966)" fill="#bc0f65"/>
      <g id="Grupo_33558" data-name="Grupo 33558" transform="translate(1317.116 344.208)">
        <path id="Trazado_39254" data-name="Trazado 39254" d="M1374.1,464.081l6.236-5.239-.622-.786,6.647-5.584-4.617-5.837-6.648,5.584-3.351-4.28,6.649-5.586-4.617-5.837-6.65,5.586-15.356-19.737a15.41,15.41,0,0,0-.743-18.039,14.286,14.286,0,0,0-20.485-2.221l0,0a15.323,15.323,0,0,0-2.009,21.125,14.321,14.321,0,0,0,17.005,4.374Zm-39.767-45.729a7.423,7.423,0,0,1,.974-10.233,6.916,6.916,0,0,1,9.924,1.078h0a7.422,7.422,0,0,1-.974,10.23h0A6.915,6.915,0,0,1,1334.335,418.353Z" transform="translate(-1325.226 -398.764)" fill="#e00b71"/>
        <path id="Rectángulo_4472" data-name="Rectángulo 4472" d="M1384.509,465.036l2.033-1.708,4.618,5.836-2.033,1.708Z" transform="translate(-1335.967 -410.461)" fill="#bc0f65"/>
        <path id="Rectángulo_4473" data-name="Rectángulo 4473" d="M1375,452.51l2.033-1.708,4.618,5.836-2.033,1.708Z" transform="translate(-1334.245 -408.192)" fill="#bc0f65"/>
        <path id="Trazado_35486" data-name="Trazado 35486" d="M1349.931,425.9h0a.648.648,0,0,0-.088.893l.006.007,29.542,37.721a.6.6,0,0,0,.865.1l.007-.007h0a.648.648,0,0,0,.088-.893l-.007-.008L1350.8,425.987A.611.611,0,0,0,1349.931,425.9Z" transform="translate(-1329.661 -403.654)" fill="#bc0f65"/>
        <path id="Trazado_35488" data-name="Trazado 35488" d="M1347.266,410.316a7.585,7.585,0,0,0-10.885-1.177,8.141,8.141,0,0,0-1.064,11.223,7.585,7.585,0,0,0,10.881,1.18A8.158,8.158,0,0,0,1347.266,410.316Zm-.524.439a7.421,7.421,0,0,1-.974,10.232,6.915,6.915,0,0,1-9.923-1.075,7.423,7.423,0,0,1,.974-10.233h0a6.915,6.915,0,0,1,9.923,1.077h0Z" transform="translate(-1326.736 -400.321)" fill="#bc0f65"/>
      </g>
      <g id="Grupo_33559" data-name="Grupo 33559" transform="translate(1629.35 401.768)">
        <path id="Trazado_35489" data-name="Trazado 35489" d="M1782.013,488h-65.995a9.47,9.47,0,0,1-9.471-9.47h0a9.47,9.47,0,0,1,9.471-9.471h65.993a9.47,9.47,0,0,1,9.471,9.471h0A9.477,9.477,0,0,1,1782.013,488Z" transform="translate(-1706.548 -469.06)" fill="#fff"/>
        <path id="Trazado_35490" data-name="Trazado 35490" d="M1721.15,482.755h0a2.478,2.478,0,0,1-2.479-2.478h0a2.478,2.478,0,0,1,2.479-2.479h0a2.478,2.478,0,0,1,2.478,2.479h0A2.486,2.486,0,0,1,1721.15,482.755Zm9.83-2.478h0a2.478,2.478,0,0,0-2.478-2.479h0a2.478,2.478,0,0,0-2.478,2.479h0a2.478,2.478,0,0,0,2.478,2.478h0a2.478,2.478,0,0,0,2.477-2.476Zm7.353,0h0a2.478,2.478,0,0,0-2.478-2.479h0a2.478,2.478,0,0,0-2.479,2.479h0a2.478,2.478,0,0,0,2.479,2.478h0a2.478,2.478,0,0,0,2.477-2.476Zm7.354,0h0a2.478,2.478,0,0,0-2.479-2.479h0a2.478,2.478,0,0,0-2.478,2.479h0a2.478,2.478,0,0,0,2.478,2.478h0a2.479,2.479,0,0,0,2.478-2.476Zm7.353,0h0a2.478,2.478,0,0,0-2.478-2.479h0a2.478,2.478,0,0,0-2.479,2.479h0a2.478,2.478,0,0,0,2.479,2.478h0a2.478,2.478,0,0,0,2.478-2.476Zm7.364,0h0a2.479,2.479,0,0,0-2.479-2.479h0a2.478,2.478,0,0,0-2.479,2.479h0a2.478,2.478,0,0,0,2.479,2.478h0a2.478,2.478,0,0,0,2.477-2.476Zm7.353,0h0a2.478,2.478,0,0,0-2.479-2.479h0a2.478,2.478,0,0,0-2.478,2.479h0a2.478,2.478,0,0,0,2.478,2.478h0a2.477,2.477,0,0,0,2.476-2.476Z" transform="translate(-1708.744 -470.643)" fill="#fc4c96"/>
      </g>
      <path id="Trazado_35491" data-name="Trazado 35491" d="M1356.471,198.812s1.116-15.284,15.657-15.284,16.409,15.284,16.409,15.284,18.641-6.713,24.981,15.657H1334.1S1331.863,201.043,1356.471,198.812Z" transform="translate(-9.709 -15.559)" fill="#fff"/>
      <path id="Trazado_35492" data-name="Trazado 35492" d="M1768.754,572.923s1.093-14.939,15.306-14.939,16.032,14.939,16.032,14.939,18.218-6.557,24.415,15.306h-77.616C1746.891,588.223,1744.705,575.11,1768.754,572.923Z" transform="translate(-84.498 -83.403)" fill="#fff"/>
      <g id="Grupo_34807" data-name="Grupo 34807" transform="translate(1461.896 97.651)">
        <g id="Grupo_34806" data-name="Grupo 34806">
          <path id="Trazado_39255" data-name="Trazado 39255" d="M1584.334,97.651h-64.911a17.381,17.381,0,0,0-17.381,17.381v36.176a17.382,17.382,0,0,0,17.381,17.382h26.667l7.523,10.878a2.664,2.664,0,0,0,2.19,1.148l.1,0a2.649,2.649,0,0,0,2.2-1.313l6.287-10.711h5.377l16.375-.093a17.384,17.384,0,0,0,15.576-17.289V115.032A17.381,17.381,0,0,0,1584.334,97.651Z" transform="translate(-1502.042 -97.651)" fill="#e21e7c"/>
          <path id="Trazado_39256" data-name="Trazado 39256" d="M1584.334,97.651h-64.911a17.381,17.381,0,0,0-17.381,17.381v36.176a17.325,17.325,0,0,0,5.111,12.309c15.771-14.93,44.541-32.941,94.562-39.527v-8.957A17.381,17.381,0,0,0,1584.334,97.651Z" transform="translate(-1502.042 -97.651)" fill="#fc4c96" opacity="0.21"/>
          <g id="Grupo_34805" data-name="Grupo 34805" opacity="0.19">
            <path id="Trazado_39257" data-name="Trazado 39257" d="M1507.638,157.3V121.129a17.382,17.382,0,0,1,17.381-17.382h64.911a17.3,17.3,0,0,1,9.642,2.919,17.377,17.377,0,0,0-15.238-9.015h-64.911a17.381,17.381,0,0,0-17.381,17.381v36.176a17.359,17.359,0,0,0,7.739,14.458A17.3,17.3,0,0,1,1507.638,157.3Z" transform="translate(-1502.042 -97.651)" fill="#fff"/>
          </g>
        </g>
        <g id="Grupo_33556" data-name="Grupo 33556" transform="translate(33.272 12.286)">
          <path id="Trazado_39258" data-name="Trazado 39258" d="M1575.092,131.54v-5.276a13.608,13.608,0,0,0-27.216,0v5.275a4.846,4.846,0,0,0-3.574,4.674v17.714a4.849,4.849,0,0,0,4.849,4.847h24.66a4.848,4.848,0,0,0,4.848-4.847V136.211A4.846,4.846,0,0,0,1575.092,131.54Zm-13.607-14.379a9.11,9.11,0,0,1,9.11,9.11v5.092h-18.22v-5.092A9.11,9.11,0,0,1,1561.485,117.161Z" transform="translate(-1542.97 -112.656)" fill="#fff" opacity="0.55"/>
          <path id="Trazado_35481" data-name="Trazado 35481" d="M1560.649,112.656a13.62,13.62,0,0,0-13.608,13.608v13.083h27.216V126.264A13.63,13.63,0,0,0,1560.649,112.656Zm-9.11,22.2v-8.588a9.111,9.111,0,0,1,18.221,0v8.588Z" transform="translate(-1543.467 -112.656)" fill="#f49c0f"/>
          <path id="Trazado_35483" data-name="Trazado 35483" d="M1572.184,162.913h-24.659a4.848,4.848,0,0,1-4.849-4.847V140.352a4.848,4.848,0,0,1,4.847-4.849h24.661a4.849,4.849,0,0,1,4.849,4.847v17.716A4.849,4.849,0,0,1,1572.184,162.913Z" transform="translate(-1542.676 -116.795)" fill="#f7bf21"/>
          <path id="Trazado_35484" data-name="Trazado 35484" d="M1567.547,148.823a4.992,4.992,0,1,0-7.291,4.434v5.4h4.6v-5.4A5.007,5.007,0,0,0,1567.547,148.823Z" transform="translate(-1545.373 -118.305)" fill="#e96f4e"/>
          <path id="Trazado_39259" data-name="Trazado 39259" d="M1574.455,163.877v2.664h3.239l.089-.013a4.851,4.851,0,0,0,.914-.227l-1.267-2.424Z" transform="translate(-1548.433 -121.936)" fill="#f9f9f9"/>
          <path id="Trazado_39260" data-name="Trazado 39260" d="M1582.3,155.52h-2.664v5.855l1.933,2.125a3.16,3.16,0,0,0,.73-2.069Z" transform="translate(-1549.373 -120.422)" fill="#f9f9f9"/>
        </g>
      </g>
      <ellipse id="Elipse_1325" data-name="Elipse 1325" cx="193.999" cy="19.457" rx="193.999" ry="19.457" transform="translate(1316.817 573.856)" fill="#5ed4f0"/>
      <ellipse id="Elipse_1326" data-name="Elipse 1326" cx="84.225" cy="9.306" rx="84.225" ry="9.306" transform="translate(1417.359 582.817)" fill="#2bbee0"/>
    </g>
  </g>
</svg>
