<svg xmlns="http://www.w3.org/2000/svg" width="238" height="238" viewBox="0 0 238 238">
  <g id="Grupo_42276" data-name="Grupo 42276" transform="translate(-4599.463 -932.191)">
    <rect id="Rectángulo_6875" data-name="Rectángulo 6875" width="238" height="238" transform="translate(4599.463 932.191)" fill="none"/>
    <path id="Trazado_44132" data-name="Trazado 44132" d="M4618.376,1103.629l10.447-.1s-1.35,7.149-6.143,6.548S4618.376,1103.629,4618.376,1103.629Z" fill="#ea7628"/>
    <path id="Trazado_44133" data-name="Trazado 44133" d="M4760.413,1079.508s-.9-20.019,21.122-20.041A26.859,26.859,0,0,0,4760.413,1079.508Z" fill="#d3927a"/>
    <path id="Trazado_44134" data-name="Trazado 44134" d="M4780.475,1033.538l11.982,16.5A27.112,27.112,0,0,0,4780.475,1033.538Z" fill="#d3927a"/>
    <path id="Trazado_44135" data-name="Trazado 44135" d="M4783.617,1033.643s3.1,9.276,9.49,12.9Z" fill="#d3927a"/>
    <g id="Grupo_42263" data-name="Grupo 42263">
      <g id="Grupo_42260" data-name="Grupo 42260">
        <path id="Trazado_44136" data-name="Trazado 44136" d="M4784.443,1116.021a13.337,13.337,0,0,0-10.96,10.277c-2.332,9.372-4.747,24.664,6.458,20.9l7.625-27.574Z" fill="#a36d31"/>
        <path id="Trazado_44137" data-name="Trazado 44137" d="M4773.483,1126.3c-2.332,9.372-4.747,24.664,6.458,20.9l1.934-6.993c-2-1.415-6.212-5.127-6.169-11.294.057-8.087,7.321-12.044,7.321-12.044a3.479,3.479,0,0,0,.2-.6A13.3,13.3,0,0,0,4773.483,1126.3Z" fill="#965f29"/>
        <path id="Trazado_44138" data-name="Trazado 44138" d="M4779.941,1147.193l1.942-7.022c-5.18,2.192-8.788,1.024-10.344.245C4771.774,1145.64,4773.835,1149.247,4779.941,1147.193Z" fill="#7c4b1f"/>
      </g>
      <g id="Grupo_42262" data-name="Grupo 42262">
        <path id="Trazado_44139" data-name="Trazado 44139" d="M4794.533,1111.756a13.306,13.306,0,0,1,14.992-.694c8.323,4.867,20.933,13.807,10.42,19.219l-25.021-13.772Z" fill="#a36d31"/>
        <path id="Trazado_44140" data-name="Trazado 44140" d="M4809.525,1111.062c8.323,4.867,20.933,13.807,10.42,19.219l-6.345-3.492c.386-2.425.672-8.038-3.764-12.311-5.817-5.6-13.714-3.152-13.714-3.152a3.483,3.483,0,0,1-.566-.274A13.258,13.258,0,0,1,4809.525,1111.062Z" fill="#a36d31"/>
        <path id="Trazado_44141" data-name="Trazado 44141" d="M4819.945,1130.281l-6.372-3.507c5.181-2.188,6.865-5.593,7.394-7.253C4824.536,1123.335,4825.674,1127.332,4819.945,1130.281Z" fill="#a36d31"/>
        <g id="Grupo_42261" data-name="Grupo 42261">
          <path id="Trazado_44142" data-name="Trazado 44142" d="M4794.533,1111.756a13.306,13.306,0,0,1,14.992-.694c8.323,4.867,20.933,13.807,10.42,19.219l-25.021-13.772Z" fill="#a36d31"/>
          <path id="Trazado_44143" data-name="Trazado 44143" d="M4809.525,1111.062c8.323,4.867,20.933,13.807,10.42,19.219l-6.345-3.492c.386-2.425.672-8.038-3.764-12.311-5.817-5.6-13.714-3.152-13.714-3.152a3.483,3.483,0,0,1-.566-.274A13.258,13.258,0,0,1,4809.525,1111.062Z" fill="#965f29"/>
          <path id="Trazado_44144" data-name="Trazado 44144" d="M4819.945,1130.281l-6.372-3.507c5.181-2.188,6.865-5.593,7.394-7.253C4824.536,1123.335,4825.674,1127.332,4819.945,1130.281Z" fill="#7c4b1f"/>
        </g>
      </g>
      <path id="Trazado_44145" data-name="Trazado 44145" d="M4807.26,1155.734h0a3.854,3.854,0,0,1-5.038-2.054l-4.679-11.12a3.871,3.871,0,0,1,2.049-5.049h0a3.853,3.853,0,0,1,5.038,2.054l4.679,11.119A3.87,3.87,0,0,1,4807.26,1155.734Z" fill="#f9759b"/>
      <path id="Trazado_44146" data-name="Trazado 44146" d="M4799.592,1137.511h0a3.807,3.807,0,0,0-1.34.952,3.785,3.785,0,0,1,.969-.593h0a3.853,3.853,0,0,1,5.037,2.053l4.679,11.12a3.874,3.874,0,0,1-.708,4.1,3.878,3.878,0,0,0,1.08-4.457l-4.679-11.119A3.853,3.853,0,0,0,4799.592,1137.511Z" fill="#ffabc7" opacity="0.37"/>
      <path id="Trazado_44147" data-name="Trazado 44147" d="M4803.125,1147.135a36.041,36.041,0,0,0,2.773,5.634s.15-1.125-1.988-5.966Z" fill="#d84a7d"/>
      <path id="Trazado_44148" data-name="Trazado 44148" d="M4805.082,1150.676c-.7-1.371-1.282-2.762-1.524-3.36l.178-.075C4804.391,1148.742,4804.812,1149.858,4805.082,1150.676Z" fill="#7a2d50" opacity="0.53"/>
      <path id="Trazado_44149" data-name="Trazado 44149" d="M4799.471,1146.959l-.017.142,2.768,6.579a3.854,3.854,0,0,0,3.06,2.322c-.91-1.651-2.267-5.441,3.375-6.868l-1.749-4.155Z" fill="#d84a7d" opacity="0.22"/>
      <path id="Trazado_44150" data-name="Trazado 44150" d="M4811.613,1123c-2.007-.724-2.039-1.406-2.7-2.971a14.05,14.05,0,0,0-1.731-3.031c-6.432-7.872-14.318-6.259-17.532-5.139l-.007-.011s-.277.09-.738.292-.724.326-.724.326l0,.013c-3.044,1.526-9.7,6.06-8.566,16.171a14.069,14.069,0,0,0,.957,3.358c.659,1.566,1.124,2.065.24,4.011-1.274,2.805-4.718,10.139,2.688,16.522,7.553,6.509,19.935.52,19.928-5.63,4.388,4.3,17.487-.484,18.108-10.45C4822.15,1126.689,4814.507,1124.042,4811.613,1123Z" fill="#eaeaea"/>
      <path id="Trazado_44151" data-name="Trazado 44151" d="M4811.613,1123c-2.007-.724-2.039-1.406-2.7-2.971a14.05,14.05,0,0,0-1.731-3.031c-6.432-7.872-14.318-6.259-17.532-5.139l-.007-.011s-.277.09-.738.292-.724.326-.724.326l0,.013c-3.044,1.526-9.7,6.06-8.566,16.171a14.069,14.069,0,0,0,.957,3.358c.659,1.566,1.124,2.065.24,4.011-1.274,2.805-4.718,10.139,2.688,16.522,7.553,6.509,19.935.52,19.928-5.63,4.388,4.3,17.487-.484,18.108-10.45C4822.15,1126.689,4814.507,1124.042,4811.613,1123Z" fill="#eaeaea"/>
      <path id="Trazado_44152" data-name="Trazado 44152" d="M4811.613,1123c-2.007-.724-2.039-1.406-2.7-2.971a14.05,14.05,0,0,0-1.731-3.031c-6.432-7.872-14.318-6.259-17.532-5.139l-.007-.011s-.277.09-.738.292-.724.326-.724.326l0,.013c-.427.214-.925.487-1.463.827.1-.043.209-.091.339-.144.465-.2.745-.3.745-.3l.007.012c3.246-1.126,11.217-2.724,17.787,5.4a14.758,14.758,0,0,1,1.775,3.125c.678,1.612.716,2.313,2.754,3.071,2.936,1.092,10.694,3.866,10.149,13.9a11.746,11.746,0,0,1-1.122,4.427,11.619,11.619,0,0,0,2.384-6.341C4822.15,1126.689,4814.507,1124.042,4811.613,1123Z" fill="#fff"/>
      <path id="Trazado_44153" data-name="Trazado 44153" d="M4799.783,1123.673s-3.113,1.907-.513,8.979,8.191,9.653,12.465,5.535,3.847-8.829-2.277-12.422S4801.81,1122.118,4799.783,1123.673Z" fill="#ad7c42"/>
      <ellipse id="Elipse_1508" data-name="Elipse 1508" cx="2.651" cy="4.14" rx="2.651" ry="4.14" transform="translate(4787.385 1136.862) rotate(-22.752)" fill="#0f0f0f"/>
      <ellipse id="Elipse_1509" data-name="Elipse 1509" cx="2.651" cy="4.14" rx="2.651" ry="4.14" transform="translate(4802.911 1130.298) rotate(-22.752)" fill="#0f0f0f"/>
      <circle id="Elipse_1510" data-name="Elipse 1510" cx="1.189" cy="1.189" r="1.189" transform="translate(4789.757 1138.797) rotate(-89.536)" fill="#fff"/>
      <circle id="Elipse_1511" data-name="Elipse 1511" cx="1.189" cy="1.189" r="1.189" transform="translate(4805.283 1132.234) rotate(-89.536)" fill="#fff"/>
      <path id="Trazado_44154" data-name="Trazado 44154" d="M4803.869,1147.66c-1.658.745-4.51-.633-4.618-2.18s2.267-2.45,2.267-2.45,2.7-1.324,3.787-.13S4805.391,1146.976,4803.869,1147.66Z" fill="#232e2e"/>
      <path id="Trazado_44155" data-name="Trazado 44155" d="M4802.37,1147c-.39-.153-.956.222-1.282.482a4.221,4.221,0,0,0,1.875.384A1.173,1.173,0,0,0,4802.37,1147Z" fill="#030304"/>
      <path id="Trazado_44156" data-name="Trazado 44156" d="M4805.518,1145.61c-.412.052-1.088.2-1.253.586a1.19,1.19,0,0,0,.218,1.048A4.114,4.114,0,0,0,4805.518,1145.61Z" fill="#030304"/>
      <ellipse id="Elipse_1512" data-name="Elipse 1512" cx="2.496" cy="0.866" rx="2.496" ry="0.866" transform="matrix(0.921, -0.39, 0.39, 0.921, 4799.607, 1144.228)" fill="#797c7c"/>
      <path id="Trazado_44157" data-name="Trazado 44157" d="M4785.633,1152.805c-7.688-6.687-4.157-14.32-2.851-17.239.906-2.025.423-2.548-.265-4.183a14.855,14.855,0,0,1-1-3.506c-.906-7.847,2.663-12.457,5.843-14.953-3.269,1.875-8.776,6.456-7.736,15.725a14.069,14.069,0,0,0,.957,3.358c.659,1.566,1.124,2.065.24,4.011-1.274,2.805-4.718,10.139,2.688,16.522a11.639,11.639,0,0,0,6.822,2.78A11.891,11.891,0,0,1,4785.633,1152.805Z" fill="#ddd"/>
    </g>
    <g id="Grupo_42264" data-name="Grupo 42264">
      <path id="Trazado_44158" data-name="Trazado 44158" d="M4770.562,959.828l-10.323,14.406-.809,3.516s5.18-1.438,17.522-9.45,13.081-10.367,13.081-10.367l-12.179-.86Z" fill="#38633c"/>
      <circle id="Elipse_1513" data-name="Elipse 1513" cx="20.721" cy="20.721" r="20.721" transform="translate(4759.866 956.119)" fill="#fccc05"/>
      <path id="Trazado_44159" data-name="Trazado 44159" d="M4764.484,980.874a20.727,20.727,0,0,1,11.207-24.169c-.17.042-.339.085-.509.131a20.721,20.721,0,1,0,14.2,38.767A20.721,20.721,0,0,1,4764.484,980.874Z" fill="#bda232" opacity="0.1" style="mix-blend-mode: multiply;isolation: isolate"/>
      <path id="Trazado_44160" data-name="Trazado 44160" d="M4775.182,956.836c-.3.08-.589.167-.879.259a20.72,20.72,0,0,1,10.8,39.966c.3-.066.593-.138.89-.218a20.721,20.721,0,0,0-10.81-40.007Z" fill="#fde375"/>
      <path id="Trazado_44161" data-name="Trazado 44161" d="M4789.311,981.522a4.509,4.509,0,0,1,.777,2.874A3.276,3.276,0,0,1,4789.311,981.522Z" fill="#21327c"/>
      <path id="Trazado_44162" data-name="Trazado 44162" d="M4766.635,971.8a4.552,4.552,0,0,0-.86,4.659,7.693,7.693,0,0,1,5.864-6.276A5.233,5.233,0,0,0,4766.635,971.8Z" fill="#e59015"/>
      <path id="Trazado_44163" data-name="Trazado 44163" d="M4791.181,964.478a4.55,4.55,0,0,1,3.736,2.913s-3.006-3.326-7.9-.808A3.838,3.838,0,0,1,4791.181,964.478Z" fill="#e59015"/>
      <path id="Trazado_44164" data-name="Trazado 44164" d="M4770.538,978.627s-1.194-4.074,2.51-5.344a4.67,4.67,0,0,1,5.826,2.538,6.171,6.171,0,0,0-5.1-.6A5.45,5.45,0,0,0,4770.538,978.627Z" fill="#2d2c2c"/>
      <path id="Trazado_44165" data-name="Trazado 44165" d="M4794.107,972.258s-1.02-4.12-4.86-3.352a4.671,4.671,0,0,0-3.755,5.127,6.171,6.171,0,0,1,4.108-3.087A5.452,5.452,0,0,1,4794.107,972.258Z" fill="#2d2c2c"/>
      <path id="Trazado_44166" data-name="Trazado 44166" d="M4782.952,983.5l14.894-4.342,2.52,2.008-16.624,5.06Z" fill="#4a57d1"/>
      <path id="Trazado_44167" data-name="Trazado 44167" d="M4790.088,984.4l-6.57,1.953-.594-3,6.387-1.824A7.663,7.663,0,0,0,4790.088,984.4Z" fill="#3b4db7"/>
      <path id="Trazado_44168" data-name="Trazado 44168" d="M4781.478,981.01a4.919,4.919,0,0,1,1.618,6.778S4783.844,985.021,4781.478,981.01Z" fill="#e59015"/>
      <path id="Trazado_44169" data-name="Trazado 44169" d="M4799.379,981.465l7.734-2.4a1.47,1.47,0,0,0,.773-1.237,8.866,8.866,0,0,0-1.051-4.619,1.619,1.619,0,0,0-1.515-.777c-1.044.085-5.73,1.549-5.73,1.549a3.3,3.3,0,0,0-2.276,2.038,4.743,4.743,0,0,0,.465,4.5C4798.547,981.754,4799.379,981.465,4799.379,981.465Z" fill="#32479e"/>
      <path id="Trazado_44170" data-name="Trazado 44170" d="M4799.218,977.8s.356.734.746.273a1.952,1.952,0,0,0-.206-2.08c-.414-.362-1.031-.156-1.362.961s.272,2.616,1.116,2.665,1.928-1.352,1.116-3.624c0,0,1.357,3.364-.864,3.924a1.287,1.287,0,0,1-1.249-.624,2.845,2.845,0,0,1-.472-2.087c.039-.735.682-1.621,1.31-1.593s.853.719.974,1.068.18,1.4-.406,1.718S4799.218,977.8,4799.218,977.8Z" fill="#21327c"/>
      <path id="Trazado_44171" data-name="Trazado 44171" d="M4799.965,981.292a3.5,3.5,0,0,0,2.185-3.694c-.239-3.3-2.682-3.7-2.682-3.7l6.67-1.8a3.784,3.784,0,0,1,1.747,1.564c.907,1.613,1.305,4.15-.772,5.408Z" fill="#5a6de0"/>
      <path id="Trazado_44172" data-name="Trazado 44172" d="M4807.885,973.656a3.784,3.784,0,0,0-1.747-1.564l-.938.253c2.565,4.54-.2,6.936-1.9,7.908l3.814-1.189C4809.19,977.806,4808.792,975.269,4807.885,973.656Z" fill="#6980e0" opacity="0.4"/>
      <ellipse id="Elipse_1514" data-name="Elipse 1514" cx="4.463" cy="3.315" rx="4.463" ry="3.315" transform="translate(4770.393 984.089) rotate(-15.12)" fill="#f27e97"/>
      <path id="Trazado_44173" data-name="Trazado 44173" d="M4759.43,977.75s11.2-14.861,30.6-19.817l-23.272-13.084s-2.723-1.916-4.928-.777c-2.381,1.231-2.408,4.963-2.408,4.963S4759.172,967.63,4759.43,977.75Z" fill="#28c9ae"/>
      <path id="Trazado_44174" data-name="Trazado 44174" d="M4790.033,957.933l-6.768-3.8a43.124,43.124,0,0,0-23.945,14.638c.012,3.247.044,6.393.11,8.983C4759.43,977.75,4770.635,962.889,4790.033,957.933Z" fill="#1d967e"/>
      <path id="Trazado_44175" data-name="Trazado 44175" d="M4778.134,951.244l-5.863-3.282c-2.79.495-7.379,2.278-12.909,7.075-.017,2.121-.034,4.646-.042,7.309A47.948,47.948,0,0,1,4778.134,951.244Z" fill="#1d967e"/>
      <path id="Trazado_44176" data-name="Trazado 44176" d="M4767.059,945.017l-.3-.168s-2.723-1.916-4.928-.777c-2.381,1.231-2.408,4.963-2.408,4.963s0,.293-.01.825A22.969,22.969,0,0,1,4767.059,945.017Z" fill="#1d967e"/>
      <path id="Trazado_44177" data-name="Trazado 44177" d="M4766.761,944.849s-2.525-1.776-4.681-.889a11.716,11.716,0,0,1,2.589.972c2.151,1.057,18.175,10.73,23.021,13.661q1.151-.353,2.343-.66Z" fill="#d6f2ec" opacity="0.24"/>
      <path id="Trazado_44178" data-name="Trazado 44178" d="M4759.748,946.975a8.651,8.651,0,0,0-.323,2.06s-.253,18.6.005,28.715a59.168,59.168,0,0,1,13.435-12.073C4764.695,962.417,4760.847,950.911,4759.748,946.975Z" fill="#1d967e" opacity="0.13" style="mix-blend-mode: multiply;isolation: isolate"/>
    </g>
    <g id="Grupo_42266" data-name="Grupo 42266">
      <g id="Grupo_42265" data-name="Grupo 42265">
        <circle id="Elipse_1515" data-name="Elipse 1515" cx="23.588" cy="23.588" r="23.588" transform="translate(4639.878 1110.891)" fill="#fccc05"/>
        <path id="Trazado_44179" data-name="Trazado 44179" d="M4647.287,1118.869a23.582,23.582,0,0,1,32.945-.971c-.13-.131-.255-.265-.388-.393a23.587,23.587,0,1,0-32.756,33.948c.133.129.272.249.407.374A23.581,23.581,0,0,1,4647.287,1118.869Z" fill="#fde375"/>
        <path id="Trazado_44180" data-name="Trazado 44180" d="M4680.44,1150.857a23.586,23.586,0,0,0-11.477-39.315,23.588,23.588,0,0,1-14.139,44.887A23.59,23.59,0,0,0,4680.44,1150.857Z" fill="#bda232" opacity="0.1" style="mix-blend-mode: multiply;isolation: isolate"/>
        <path id="Trazado_44181" data-name="Trazado 44181" d="M4649.258,1134.064s15.679,9.176,25.641,8.554c0,0-5.009,13.24-17.762,8.555C4644.435,1146.507,4649.258,1134.064,4649.258,1134.064Z" fill="#422c9b"/>
        <path id="Trazado_44182" data-name="Trazado 44182" d="M4673.168,1145.814a17.553,17.553,0,0,0,1.731-3.2c-9.963.622-25.641-8.554-25.641-8.554a15.351,15.351,0,0,0-.744,3.135C4651.541,1139.187,4663.512,1146.573,4673.168,1145.814Z" fill="#fff"/>
        <path id="Trazado_44183" data-name="Trazado 44183" d="M4657.136,1151.173a12.9,12.9,0,0,0,9.694.122,11.578,11.578,0,0,0-7.3-6.814c-5.316-1.952-8.543-.425-9.9.545C4650.843,1147.427,4653.1,1149.692,4657.136,1151.173Z" fill="#f80a73"/>
        <path id="Trazado_44184" data-name="Trazado 44184" d="M4664.665,1151.951a11.435,11.435,0,0,0,2.165-.656,11.578,11.578,0,0,0-7.3-6.814,14.167,14.167,0,0,0-4.692-.937,16.041,16.041,0,0,1,4.194,1.905A13.369,13.369,0,0,1,4664.665,1151.951Z" fill="#e21e7c"/>
      </g>
      <path id="Trazado_44185" data-name="Trazado 44185" d="M4659.292,1130.9s1.059-4.785-3.306-5.961c-4.478-1.207-6.316,2.831-6.515,3.375a7.128,7.128,0,0,1,5.834-1.084A6.293,6.293,0,0,1,4659.292,1130.9Z" fill="#2d2c2c"/>
      <path id="Trazado_44186" data-name="Trazado 44186" d="M4677.333,1139.472s2.449-4.245-1.361-6.679c-3.909-2.5-6.875.8-7.228,1.262a7.127,7.127,0,0,1,5.89.718A6.292,6.292,0,0,1,4677.333,1139.472Z" fill="#2d2c2c"/>
      <path id="Trazado_44187" data-name="Trazado 44187" d="M4655.6,1118.584a5.256,5.256,0,0,0-4.846,2.537,8.88,8.88,0,0,1,9.879.859A6.042,6.042,0,0,0,4655.6,1118.584Z" fill="#e59015"/>
      <path id="Trazado_44188" data-name="Trazado 44188" d="M4679.146,1127.692a5.252,5.252,0,0,1,2.132,5.037s-1.163-5.044-7.517-5.256A4.431,4.431,0,0,1,4679.146,1127.692Z" fill="#e59015"/>
    </g>
    <g id="Grupo_42268" data-name="Grupo 42268">
      <path id="Trazado_44189" data-name="Trazado 44189" d="M4703.507,952.2s-4.7-3.429-8.438.138c-6.28,5.986-.546,18.009,14.808,21.612,0,0,17.459-13.823,8.54-24.733C4711.486,940.742,4703.507,952.2,4703.507,952.2Z" fill="#6d31fd"/>
      <g id="Grupo_42267" data-name="Grupo 42267" opacity="0.46">
        <path id="Trazado_44190" data-name="Trazado 44190" d="M4700.786,954.7s1.219-1.069,2.721-2.492c-3.022-1.793-6.128-2.065-8.438.138-.074.07-.138.145-.209.217C4697.307,952.568,4700.786,954.7,4700.786,954.7Z" fill="#422c9b"/>
        <path id="Trazado_44191" data-name="Trazado 44191" d="M4718.417,949.221c-3.751-4.589-7.807-3.335-10.742-1.22,2.1-.3,4.386.4,6.563,3.059,6.719,8.219-1.531,18.09-6.011,22.46.538.155,1.086.3,1.65.434C4709.877,973.954,4727.336,960.131,4718.417,949.221Z" fill="#422c9b"/>
      </g>
      <path id="Trazado_44192" data-name="Trazado 44192" d="M4694.581,955.318s-2.334,4.755,2.562,9.74C4697.143,965.058,4693.667,959.234,4694.581,955.318Z" fill="#fff"/>
    </g>
    <g id="Grupo_42271" data-name="Grupo 42271">
      <path id="Trazado_44193" data-name="Trazado 44193" d="M4619.823,975.741s-2.3-4.471,2.79-6.5,7.877,4.717,7.877,4.717Z" fill="#0d6015"/>
      <path id="Trazado_44194" data-name="Trazado 44194" d="M4622.149,972.852l-.056-2.824S4620.589,970.927,4622.149,972.852Z" fill="#169331" opacity="0.29"/>
      <path id="Trazado_44195" data-name="Trazado 44195" d="M4610.2,976.69l2.13.479,10.175-2.509S4617.864,966.374,4610.2,976.69Z" fill="#0c681b"/>
      <path id="Trazado_44196" data-name="Trazado 44196" d="M4607.222,997.446a13.482,13.482,0,0,1-.533-15.315c5.185-8.2,15.819-7.471,15.819-7.471s-9.651,9.494-11.816,14.265l-1.224-1.158.908,2.431-2.548-2.372,2.382,4.413-2.76-2.227,1.441,2.939Z" fill="#10872c"/>
      <path id="Trazado_44197" data-name="Trazado 44197" d="M4622.17,974.647h0a20.057,20.057,0,0,0-10.746,2.812,5.189,5.189,0,0,1,5,3.657c2.573-2.925,5.138-5.51,5.877-6.246l.169-.212C4622.415,974.655,4622.314,974.65,4622.17,974.647Z" fill="#127522" opacity="0.41"/>
      <path id="Trazado_44198" data-name="Trazado 44198" d="M4607.376,992.737l-1.657-4.72S4604.576,989.355,4607.376,992.737Z" fill="#169331"/>
      <path id="Trazado_44199" data-name="Trazado 44199" d="M4608.368,981.672l2.02,5.344S4607.185,984.779,4608.368,981.672Z" fill="#169331"/>
      <path id="Trazado_44200" data-name="Trazado 44200" d="M4609.744,980.86l1.884,4.5A4.417,4.417,0,0,1,4609.744,980.86Z" fill="#169331"/>
      <path id="Trazado_44201" data-name="Trazado 44201" d="M4611.045,979.664l1.752,4.219S4610.21,981.911,4611.045,979.664Z" fill="#169331"/>
      <path id="Trazado_44202" data-name="Trazado 44202" d="M4614.453,973.611l5.781.358A5.006,5.006,0,0,0,4614.453,973.611Z" fill="#169331" opacity="0.29"/>
      <path id="Trazado_44203" data-name="Trazado 44203" d="M4622.508,974.66a11.888,11.888,0,0,1,7.332-7.417c5.773-1.939,9.977,4.967,9.977,4.967S4632.008,968.691,4622.508,974.66Z" fill="#10872c"/>
      <path id="Trazado_44204" data-name="Trazado 44204" d="M4628.064,968.011a12.029,12.029,0,0,0-5.556,6.649,22.789,22.789,0,0,1,6.959-2.959A4.221,4.221,0,0,1,4628.064,968.011Z" fill="#127522" opacity="0.49"/>
      <path id="Trazado_44205" data-name="Trazado 44205" d="M4630.46,1021.074a10.752,10.752,0,0,1,4.554-9.945c5.553-4.09,9.337-2.187,9.337-2.187s2.668-2.936,4.853-1.188C4649.2,1007.754,4643.529,1015.412,4630.46,1021.074Z" fill="#f4b027"/>
      <path id="Trazado_44206" data-name="Trazado 44206" d="M4638.867,1009.751a16.6,16.6,0,0,1,1.78-1.15,12.8,12.8,0,0,0-5.633,2.528,10.752,10.752,0,0,0-4.554,9.945c1.347-.584,2.614-1.189,3.806-1.8A10.83,10.83,0,0,1,4638.867,1009.751Z" fill="#eaa326"/>
      <g id="Grupo_42270" data-name="Grupo 42270">
        <path id="Trazado_44207" data-name="Trazado 44207" d="M4621.891,984.537a59.7,59.7,0,0,0,13.848,30.765,17.445,17.445,0,0,0,7.313-4.978s-16.491-5.946-17.386-27.735Z" fill="#89471b"/>
        <g id="Grupo_42269" data-name="Grupo 42269" opacity="0.57">
          <path id="Trazado_44208" data-name="Trazado 44208" d="M4636.876,1012.3a13.205,13.205,0,0,0-.259,2.679,16.451,16.451,0,0,0,2.389-1.252,9.894,9.894,0,0,1,.162-1.028,7.334,7.334,0,0,1,1.652-3.442c-.587-.325-1.265-.732-2-1.23A9.858,9.858,0,0,0,4636.876,1012.3Z" fill="#5e2b0e"/>
          <path id="Trazado_44209" data-name="Trazado 44209" d="M4637.1,1006.763c-.574-.454-1.164-.959-1.761-1.517a12.443,12.443,0,0,0-2.763,5.14c-.058.214-.109.424-.155.629q.942,1.333,2,2.67A10.927,10.927,0,0,1,4637.1,1006.763Z" fill="#5e2b0e"/>
          <path id="Trazado_44210" data-name="Trazado 44210" d="M4633.537,1003.407c-.5-.558-.994-1.155-1.479-1.793a12.285,12.285,0,0,0-2.942,4.18q.73,1.292,1.557,2.607c.09-.344.2-.71.34-1.09A10.032,10.032,0,0,1,4633.537,1003.407Z" fill="#5e2b0e"/>
          <path id="Trazado_44211" data-name="Trazado 44211" d="M4629.468,997.547a12.164,12.164,0,0,0-2.913,3.185q.571,1.27,1.238,2.59a10.277,10.277,0,0,1,2.851-3.744Q4630.033,998.615,4629.468,997.547Z" fill="#5e2b0e"/>
          <path id="Trazado_44212" data-name="Trazado 44212" d="M4628.34,995.162q-.45-1.07-.842-2.231a12.274,12.274,0,0,0-2.972,2.707c.3.853.626,1.738.992,2.651.056-.093.113-.188.174-.283A10.25,10.25,0,0,1,4628.34,995.162Z" fill="#5e2b0e"/>
          <path id="Trazado_44213" data-name="Trazado 44213" d="M4626.817,990.624q-.294-1.139-.522-2.359a12.121,12.121,0,0,0-3.254,2.44c.213.838.464,1.746.759,2.712A10.142,10.142,0,0,1,4626.817,990.624Z" fill="#5e2b0e"/>
          <path id="Trazado_44214" data-name="Trazado 44214" d="M4622.035,985.733c.095.661.246,1.579.481,2.706a10.107,10.107,0,0,1,3.438-2.369q-.147-1.161-.229-2.391A12.162,12.162,0,0,0,4622.035,985.733Z" fill="#5e2b0e"/>
        </g>
        <path id="Trazado_44215" data-name="Trazado 44215" d="M4625.666,982.589l-1.854.957c.227,2.323,2.509,20.918,17.727,28.276a19.844,19.844,0,0,0,1.513-1.5S4626.561,1004.378,4625.666,982.589Z" fill="#b76e46" opacity="0.26"/>
      </g>
      <path id="Trazado_44216" data-name="Trazado 44216" d="M4621.038,1006.343l-.041-.023a17.92,17.92,0,0,1-8.148-9.371,15.673,15.673,0,0,1-1.043-5.326,20.721,20.721,0,0,1,1.908-7.946,19.467,19.467,0,0,1,3.646-5.255,18.483,18.483,0,0,1,5.133-3.8l.044-.019,2.08,10.584a68.889,68.889,0,0,1-1.27,13.323l-.012.056-3.143-2.16,3.394,4.8-3.277-1.963,2.026,3.24-.006.017Z" fill="#1b9e3d"/>
      <path id="Trazado_44217" data-name="Trazado 44217" d="M4619.8,1004.315s-10.177-12.484,1.1-27.443C4620.9,976.872,4606.907,989.946,4619.8,1004.315Z" fill="#34bf55"/>
      <path id="Trazado_44218" data-name="Trazado 44218" d="M4618.769,984.8l4.656,3.55S4620.133,988.72,4618.769,984.8Z" fill="#16872b"/>
      <path id="Trazado_44219" data-name="Trazado 44219" d="M4618.259,986.7l4.657,3.55S4619.624,990.622,4618.259,986.7Z" fill="#16872b"/>
      <path id="Trazado_44220" data-name="Trazado 44220" d="M4618.049,988.583l4.657,3.55S4619.414,992.507,4618.049,988.583Z" fill="#16872b"/>
      <path id="Trazado_44221" data-name="Trazado 44221" d="M4617.538,990.3l4.656,3.55S4618.9,994.224,4617.538,990.3Z" fill="#16872b"/>
      <path id="Trazado_44222" data-name="Trazado 44222" d="M4622.493,974.624a18.483,18.483,0,0,0-5.133,3.8,19.475,19.475,0,0,0-3.592,5.143c5.257-4.792,6.614-4.534,9.6-4.744l-.828-4.216Z" fill="#127522" opacity="0.29"/>
      <path id="Trazado_44223" data-name="Trazado 44223" d="M4622.537,974.6s8.151-6.757,15.315-1.99,8.174,13.287,8.174,13.287l-4.521-2.895a18.937,18.937,0,0,0-1.541-3.68,9.854,9.854,0,0,1,.267,3.272,19.846,19.846,0,0,0-1.089-2.743,5.845,5.845,0,0,1-.157,2.191,10.137,10.137,0,0,0-1.544-4.051,16.381,16.381,0,0,1,.211,2.687S4626.914,974.265,4622.537,974.6Z" fill="#1b9e3d"/>
      <path id="Trazado_44224" data-name="Trazado 44224" d="M4624.954,973.866s10.515-6.245,18.836,6.466C4643.79,980.332,4637.609,966.621,4624.954,973.866Z" fill="#34bf55"/>
      <path id="Trazado_44225" data-name="Trazado 44225" d="M4628.734,971.421a18.839,18.839,0,0,0-6.2,3.184c1.7-.132,4.353.754,6.967,1.887C4628.891,975.572,4627.641,973.306,4628.734,971.421Z" fill="#127522" opacity="0.29"/>
      <path id="Trazado_44226" data-name="Trazado 44226" d="M4630.9,973.095l2.136,3.565A4.867,4.867,0,0,0,4630.9,973.095Z" fill="#16872b"/>
      <path id="Trazado_44227" data-name="Trazado 44227" d="M4632.232,973.1l2.361,4.2S4634.828,975.026,4632.232,973.1Z" fill="#16872b"/>
      <path id="Trazado_44228" data-name="Trazado 44228" d="M4633.939,973.6l2.38,4.228S4636.519,975.866,4633.939,973.6Z" fill="#16872b"/>
      <path id="Trazado_44229" data-name="Trazado 44229" d="M4622.537,974.6s-2.549,6.955,5.226,15.392l.78-2.024.472,3.619,1.038-1.827.7,2.675s5.291,3.325,8.093,3.907c0,0-.246-3.773-.527-5.283l-2.6-1.629,2.074.122s-1.3-3.677-2.406-5.911l-2.647-1.391,2.616.127-3.3-1.985,1.369-.06S4630.655,974.187,4622.537,974.6Z" fill="#25af45"/>
      <path id="Trazado_44230" data-name="Trazado 44230" d="M4623.154,975.548s11.255,11.294,13.6,18.033C4636.757,993.581,4628.387,982.687,4623.154,975.548Z" fill="#40cc5e"/>
      <path id="Trazado_44231" data-name="Trazado 44231" d="M4626.267,986.7l.935-3.623A2.7,2.7,0,0,0,4626.267,986.7Z" fill="#169331"/>
      <path id="Trazado_44232" data-name="Trazado 44232" d="M4627.64,988.048l.936-3.5S4626.692,985.376,4627.64,988.048Z" fill="#169331"/>
      <path id="Trazado_44233" data-name="Trazado 44233" d="M4631.9,991.326l.374-2.619S4630.552,989.218,4631.9,991.326Z" fill="#169331"/>
      <path id="Trazado_44234" data-name="Trazado 44234" d="M4632.735,985.783l3.311,1.147A2.594,2.594,0,0,0,4632.735,985.783Z" fill="#169331"/>
      <path id="Trazado_44235" data-name="Trazado 44235" d="M4631.421,983.732l3.854,1.152S4633.522,982.675,4631.421,983.732Z" fill="#169331"/>
    </g>
    <path id="Trazado_44236" data-name="Trazado 44236" d="M4819.677,990.473s2.338,4.355-.4,6.176c-4.59,3.057-4.4,2.571-6.777,6.534l4.8,4.071a13.331,13.331,0,0,1,5.39-6.641c4.122-2.571,3.567-8.177,2.537-9.962Z" fill="#dedc00"/>
    <path id="Trazado_44237" data-name="Trazado 44237" d="M4624.494,1096.159s-4.093,6.084-1.71,9.818,5.654.332,6.039-2.447c0,0,.108,8.845-7.742,8.6s-6.834-11.591-2.146-17.772Z" fill="#f78116"/>
    <path id="Trazado_44238" data-name="Trazado 44238" d="M4671.651,978.073s2.347,7.134,9.9,3.472v5.414s-6.267,1.9-11.923-4.411Z" fill="#35dbcf"/>
    <path id="Trazado_44239" data-name="Trazado 44239" d="M4812.149,1076.519s3.133,10.291,17.451,8.054l-3.132,8.053s-9.4,2.238-16.108-8.5Z" fill="#6fc7dd"/>
    <path id="Trazado_44240" data-name="Trazado 44240" d="M4731.8,944.279s-1.118-4.027,6.488-5.593,7.159-6.04,7.159-6.04l4.922,6.711a13.216,13.216,0,0,1-8.5,4.251c-5.37.447-6.936,5.817-6.936,5.817Z" fill="#f80a73"/>
    <g id="Grupo_42272" data-name="Grupo 42272" transform="translate(-1 5)">
      <path id="Trazado_44241" data-name="Trazado 44241" d="M4726.335,1120.2s3.412,17.491.365,17.5C4724.11,1137.709,4725.148,1125.545,4726.335,1120.2Z" fill="#fccc05"/>
      <path id="Trazado_44242" data-name="Trazado 44242" d="M4745.766,1139.4s-17.492,3.412-17.5.365C4728.262,1137.173,4740.426,1138.212,4745.766,1139.4Z" fill="#fccc05"/>
      <path id="Trazado_44243" data-name="Trazado 44243" d="M4727.017,1159.168s-3.411-17.491-.364-17.5C4729.242,1141.665,4728.2,1153.828,4727.017,1159.168Z" fill="#fccc05"/>
      <path id="Trazado_44244" data-name="Trazado 44244" d="M4707.4,1139.784s17.492-3.412,17.5-.365C4724.9,1142.009,4712.736,1140.971,4707.4,1139.784Z" fill="#fccc05"/>
    </g>
    <g id="Grupo_42273" data-name="Grupo 42273" transform="translate(-5 -6)">
      <path id="Trazado_44245" data-name="Trazado 44245" d="M4662.713,940.115s2.8,14.344.3,14.349C4660.889,954.469,4661.74,944.494,4662.713,940.115Z" fill="#fccc05"/>
      <path id="Trazado_44246" data-name="Trazado 44246" d="M4678.648,955.855s-14.344,2.8-14.35.3C4664.294,954.03,4674.269,954.881,4678.648,955.855Z" fill="#fccc05"/>
      <path id="Trazado_44247" data-name="Trazado 44247" d="M4663.273,972.068s-2.8-14.345-.3-14.35C4665.1,957.713,4664.246,967.688,4663.273,972.068Z" fill="#fccc05"/>
      <path id="Trazado_44248" data-name="Trazado 44248" d="M4647.182,956.171s14.344-2.8,14.349-.3C4661.536,958,4651.561,957.144,4647.182,956.171Z" fill="#fccc05"/>
    </g>
    <g id="Grupo_42274" data-name="Grupo 42274">
      <path id="Trazado_44249" data-name="Trazado 44249" d="M4812.751,943.638s8.266,4.672,7.188,13.3l5.75-2.875S4823.892,942.919,4812.751,943.638Z" fill="#906df2"/>
      <path id="Trazado_44250" data-name="Trazado 44250" d="M4809.517,945.075s13.117-2.336,16.172,8.985c0,0-.719-13.3-13.117-14.016Z" fill="#a176ff"/>
    </g>
    <g id="Grupo_42275" data-name="Grupo 42275">
      <path id="Trazado_44251" data-name="Trazado 44251" d="M4715.472,1076.73s-4.679,4.909-16.43,3.346c-14.972-1.993-16.482-4.709-20.237-2.449-3.944,2.373-4.016,14.919,12.646,17.394s27.69-1.957,37.314-5.9Z" fill="#fcc6ae"/>
      <path id="Trazado_44252" data-name="Trazado 44252" d="M4727.975,1084.1c-9.314-1.774-12.5-7.373-12.5-7.373s-4.679,4.909-16.43,3.346c-14.972-1.993-16.482-4.709-20.237-2.449-3.944,2.373-4.016,14.919,12.646,17.394.331.049.657.091.983.135a5.835,5.835,0,0,0,1.072-.3l6.206.864a59.514,59.514,0,0,0,21.622-3.71Z" fill="#d39884"/>
      <path id="Trazado_44253" data-name="Trazado 44253" d="M4702.668,1055.464l0-9.954s.5-7.966,6.141-8.606,7.4,4.978,7.742,9.01Z" fill="#c98d7d"/>
      <path id="Trazado_44254" data-name="Trazado 44254" d="M4709.933,1036.862a7.35,7.35,0,0,0-1.126.042c-5.639.64-6.141,8.606-6.141,8.606v4.052c1.812-.934,6.2-3.462,9.857-5.594A5.572,5.572,0,0,1,4709.933,1036.862Z" fill="#d39884"/>
      <path id="Trazado_44255" data-name="Trazado 44255" d="M4688.522,1047.707l7.283-2.4s-.753-9.434,5.3-15.658c5.5-5.645,15.389-3.241,15.389-3.241s13.761-6.894,17.569-12.266,3.229-11.109.45-13.511l-43.989,13.27-13.777,18.455S4679.647,1046.751,4688.522,1047.707Z" fill="#d89480"/>
      <path id="Trazado_44256" data-name="Trazado 44256" d="M4690.886,1012.747l-10.6,10.973-4.438,11.018-1.72,4.269s6.475,13.175,15.3,11.832l6.339-5.942s-3.494-5.689-1.959-11.976a18.909,18.909,0,0,1,2.065-4.9c4.66-7.352,17.41-5.51,17.41-5.51s8.911-9.25,11.481-15.441Z" fill="#bc887d" opacity="0.17" style="mix-blend-mode: multiply;isolation: isolate"/>
      <path id="Trazado_44257" data-name="Trazado 44257" d="M4706.888,1001.473l29.04-16.737s4.241-1.618,5.668,3.268-8.205,18.531-17.894,22.937l-14.873,1.593Z" fill="#e8a287"/>
      <path id="Trazado_44258" data-name="Trazado 44258" d="M4678.471,1009.433l-.714-7.227s44.37-22.439,51.137-27.492,12.02,2.271,8.443,10.619-18.889,19.054-24.708,22.05S4678.471,1009.433,4678.471,1009.433Z" fill="#efaa8b"/>
      <path id="Trazado_44259" data-name="Trazado 44259" d="M4611.526,1059.827s51.041-51.611,70.615-59.866,31.366-.769,39.962,6.115c0,0,8.515,6.8,10.943,20.571s2.312,19.707-2.125,21.7-9.216-3.111-11.122-7.793-8.059-27.926-25.116-18.487c-10.53,5.826-7.357,21.126,1.6,22.8,0,0,.651,11.17-4.789,18.494l-5.437-.181s-5.841,11.929-20.849,9.367l-20.426,26.371S4617.125,1087.347,4611.526,1059.827Z" fill="#f4b08e"/>
      <path id="Trazado_44260" data-name="Trazado 44260" d="M4734.592,1038.6l-2.534-5.389-8.985-.684-3.311,7.936.037.093c1.358,3.335,2.786,5.955,5.9,7,6.687,2.285,8.713-4.393,8.843-5.421,0-.03.039-.54.041-.569l.044-1.159Q4734.634,1039.556,4734.592,1038.6Z" fill="#efaa8b"/>
      <path id="Trazado_44261" data-name="Trazado 44261" d="M4734.62,1039.283l-.647.049-.537.041-11.243-2.613-1.609,5.45c1.775,3.274,4.771,6.322,7.888,6.567-1.388-5.091,6.135-9.132,6.135-9.132l.016-.009Z" fill="#e5a085" opacity="0.17" style="mix-blend-mode: multiply;isolation: isolate"/>
      <path id="Trazado_44262" data-name="Trazado 44262" d="M4757.292,1033.221s-4.377-11.189-19.9-12.453-25.483,10.941-25.142,16.712,6.811,9.836,22.014,2.218c0,0,5.413-2.631,8.806,1.162s4.685,9.783,1.756,16.009c-2.76,5.866-10.239,8.346-17.42,5.467-6.384-2.559-8.593-9.158-8.593-9.158l-16.034,2.408s-.959,16.423,12.7,21.144c0,0,5.091,24.915,37.062,25.652,0,0,.18.974,1.825-.358,0,0,8.729.5,22.92-12.462s18.53-18.367,19.091-22.4l26.468-15.543s-.335-29.23-31.643-38.788l-18.821,15.881S4763.205,1028.619,4757.292,1033.221Z" fill="#e2a388"/>
      <path id="Trazado_44263" data-name="Trazado 44263" d="M4686.055,1063.185a39.393,39.393,0,0,0,24.854-2.526c12.843-5.9,14.813-11.394,14.338-15.3s-6.016-7.577-13.483-3.749c-12.587,6.454-18.967,2.037-18.967,2.037l-4.829,7.507S4682.686,1059.5,4686.055,1063.185Z" fill="#f4b08e"/>
      <path id="Trazado_44264" data-name="Trazado 44264" d="M4730.041,1093l-6.308-5.97a36.592,36.592,0,0,1-19.479,4.684c-7.613-.414-16.58-3.379-18.038,3.567-1.551,7.392,10.147,18.781,35.222,12.044,0,0,12.726-4.2,14.039-8.4Z" fill="#dd9e87"/>
      <path id="Trazado_44265" data-name="Trazado 44265" d="M4704.363,1102.064c-9.074,1.658-14.721-.706-17.854-2.965,1.528,4.506,7.154,9.138,16.9,10.1a53.424,53.424,0,0,0,18.026-1.871l.038-.012.022-.008.024-.008.019-.006.049-.017.009,0,.07-.024.03-.01.069-.024.027-.009.093-.033.018-.006.107-.037.037-.013.111-.04.03-.01.134-.048.026-.01.143-.051.04-.014.147-.054.039-.014.164-.06.036-.014.174-.064.04-.015.178-.067.052-.019.18-.068.053-.021.195-.074.047-.018.209-.081.044-.018.222-.086.039-.016.237-.094.033-.013.252-.1.025-.01.268-.109.017-.007.278-.115.015-.006.292-.122.006,0c.806-.34,1.669-.723,2.536-1.139h0l-11.845-11.854A16.644,16.644,0,0,1,4704.363,1102.064Z" fill="#d39884"/>
      <path id="Trazado_44266" data-name="Trazado 44266" d="M4726.4,1068.775s8.081,16.748,24.762,25.063C4751.165,1093.838,4739.71,1087.137,4726.4,1068.775Z" fill="#d3927a"/>
      <path id="Trazado_44267" data-name="Trazado 44267" d="M4730.529,1091.391l-4.076-10.685s8.057.458,9.254,11.321c0,0,2.067.8,5.619-.6,0,0-1.212,8.842-5.049,9.312s-8.468-6.963-8.468-6.963Z" fill="#d39979"/>
      <path id="Trazado_44268" data-name="Trazado 44268" d="M4754.359,1102.024s-6.933,7.987-22.3,8.206-16.094-6.748-15.694-13.943-.778-15.073,6.454-16.032,10.526,8.19,9.985,17.211a13.139,13.139,0,0,0,8.52-6.035S4748.435,1093.347,4754.359,1102.024Z" fill="#e2a388"/>
      <path id="Trazado_44269" data-name="Trazado 44269" d="M4790.25,1034.664l3.706,5.616.106-3.2,1.956.518.127-3.809,2.111.657,1.328-3.049-2.138,1.742-2.505-.83-.128,3.835-1.857-1.075-.061,1.811Z" fill="#d3927a"/>
      <path id="Trazado_44270" data-name="Trazado 44270" d="M4797.7,1060.281l19.668-11.7a1.621,1.621,0,0,1,2.416,1.057l.033.154a1.624,1.624,0,0,1-.766,1.736l-19.7,11.55a1.621,1.621,0,0,1-2.437-1.277h0A1.622,1.622,0,0,1,4797.7,1060.281Z" fill="#d3927a"/>
      <path id="Trazado_44271" data-name="Trazado 44271" d="M4643.635,1091.622l14.206-18.564a1.656,1.656,0,0,1,2.692.086l.089.133a1.657,1.657,0,0,1-.067,1.937l-14.3,18.43a1.656,1.656,0,0,1-2.8-.286h0A1.656,1.656,0,0,1,4643.635,1091.622Z" fill="#e8a287"/>
    </g>
    <path id="Trazado_44272" data-name="Trazado 44272" d="M4779.333,1077.885s5.779,5.639,4.333,13.677l6.415-3.613s.1-8.12-5.952-13.473Z" fill="#5224e2"/>
    <path id="Trazado_44273" data-name="Trazado 44273" d="M4691.172,1058.147s7.405,4.5.691,10.15l4.505,2.9s8.469-4.812.45-15.493Z" fill="#910c55"/>
    <path id="Trazado_44274" data-name="Trazado 44274" d="M4637.5,1043.892s-4.308,2.425-6.183-.273c-3.148-4.528-2.659-4.347-6.669-6.645l-3.973,4.877a13.334,13.334,0,0,1,6.748,5.256c2.652,4.07,8.246,3.4,10.01,2.336Z" fill="#36a9e1"/>
    <path id="Trazado_44275" data-name="Trazado 44275" d="M4629.542,1157.6s-4.931-.36-5-3.645c-.121-5.513.187-5.092-1.884-9.224l-6.007,1.868a13.335,13.335,0,0,1,2.718,8.11c-.039,4.858,4.991,7.393,7.05,7.48Z" fill="#910c55"/>
  </g>
</svg>
